<?xml version="1.0" encoding="UTF-8" standalone="no"?>
<!-- Created with Inkscape (http://www.inkscape.org/) -->

<svg
   id="svg2443"
   sodipodi:version="0.32"
   inkscape:version="1.4 (e7c3feb, 2024-10-09)"
   width="102.00805"
   height="102.00805"
   xml:space="preserve"
   sodipodi:docname="cnrs.svg"
   version="1.0"
   inkscape:output_extension="org.inkscape.output.svg.inkscape"
   inkscape:export-filename="cnrs.png"
   inkscape:export-xdpi="282.33066"
   inkscape:export-ydpi="282.33066"
   xmlns:inkscape="http://www.inkscape.org/namespaces/inkscape"
   xmlns:sodipodi="http://sodipodi.sourceforge.net/DTD/sodipodi-0.dtd"
   xmlns:xlink="http://www.w3.org/1999/xlink"
   xmlns="http://www.w3.org/2000/svg"
   xmlns:svg="http://www.w3.org/2000/svg"
   xmlns:rdf="http://www.w3.org/1999/02/22-rdf-syntax-ns#"
   xmlns:cc="http://creativecommons.org/ns#"
   xmlns:dc="http://purl.org/dc/elements/1.1/"><metadata
     id="metadata2448"><rdf:RDF><cc:Work
         rdf:about=""><dc:format>image/svg+xml</dc:format><dc:type
           rdf:resource="http://purl.org/dc/dcmitype/StillImage" /></cc:Work></rdf:RDF></metadata><defs
     id="defs2446"><inkscape:perspective
       sodipodi:type="inkscape:persp3d"
       inkscape:vp_x="0 : 541.14914 : 1"
       inkscape:vp_y="0 : 1000 : 0"
       inkscape:vp_z="744.09448 : 541.14914 : 1"
       inkscape:persp3d-origin="372.04724 : 365.75544 : 1"
       id="perspective2450" /><clipPath
       clipPathUnits="userSpaceOnUse"
       id="clipPath2458"><path
         d="m 0,0.89 h 595 v 841 H 0 Z"
         id="path2460" /></clipPath><clipPath
       clipPathUnits="userSpaceOnUse"
       id="clipPath2630"><path
         d="m 113.386,491.4611 h 68.031 v 68.031 h -68.031 z"
         id="path2632" /></clipPath><radialGradient
       fx="0"
       fy="0"
       cx="0"
       cy="0"
       r="1"
       gradientUnits="userSpaceOnUse"
       gradientTransform="matrix(42.9428,0,0,-42.9428,155.14,533.4193)"
       spreadMethod="pad"
       id="radialGradient2644"><stop
         style="stop-opacity:1;stop-color:#486492"
         offset="0"
         id="stop2646" /><stop
         style="stop-opacity:1;stop-color:#132746"
         offset="1"
         id="stop2648" /></radialGradient><clipPath
       clipPathUnits="userSpaceOnUse"
       id="clipPath2708"><path
         d="m 129.923,260.574 h 28.346 v 28.346 h -28.346 z"
         id="path2710" /></clipPath><radialGradient
       fx="0"
       fy="0"
       cx="0"
       cy="0"
       r="1"
       gradientUnits="userSpaceOnUse"
       gradientTransform="matrix(17.89641,0,0,-17.89658,147.324,278.059)"
       spreadMethod="pad"
       id="radialGradient2722"><stop
         style="stop-opacity:1;stop-color:#486492"
         offset="0"
         id="stop2724" /><stop
         style="stop-opacity:1;stop-color:#132746"
         offset="1"
         id="stop2726" /></radialGradient><clipPath
       clipPathUnits="userSpaceOnUse"
       id="clipPath2758"><path
         d="m 113.386,408.189 h 68.031 v 68.032 h -68.031 z"
         id="path2760" /></clipPath><radialGradient
       fx="0"
       fy="0"
       cx="0"
       cy="0"
       r="1"
       gradientUnits="userSpaceOnUse"
       gradientTransform="matrix(42.9428,0,0,-42.9428,155.1404,450.1476)"
       spreadMethod="pad"
       id="radialGradient2772"><stop
         style="stop-opacity:1;stop-color:#486492"
         offset="0"
         id="stop2774" /><stop
         style="stop-opacity:1;stop-color:#132746"
         offset="1"
         id="stop2776" /></radialGradient><clipPath
       clipPathUnits="userSpaceOnUse"
       id="clipPath2872"><path
         d="m 132.885,229.393 h 22.677 v 22.677 h -22.677 z"
         id="path2874" /></clipPath><clipPath
       clipPathUnits="userSpaceOnUse"
       id="clipPath2910"><path
         d="m 119.881,342.992 h 51.023 v 51.024 h -51.023 z"
         id="path2912" /></clipPath><radialGradient
       fx="0"
       fy="0"
       cx="0"
       cy="0"
       r="1"
       gradientUnits="userSpaceOnUse"
       gradientTransform="matrix(32.2071,0,0,-32.20741,151.1965,374.4604)"
       spreadMethod="pad"
       id="radialGradient2924"><stop
         style="stop-opacity:1;stop-color:#486492"
         offset="0"
         id="stop2926" /><stop
         style="stop-opacity:1;stop-color:#132746"
         offset="1"
         id="stop2928" /></radialGradient><clipPath
       clipPathUnits="userSpaceOnUse"
       id="clipPath2958"><path
         d="m 100.898,202.5051 h 90.44 v 8.5 h -90.44 z"
         id="path2960" /></clipPath><clipPath
       clipPathUnits="userSpaceOnUse"
       id="clipPath2966"><path
         d="m 100.898,201.084 h 87.7437 v 9.9209 H 100.898 Z"
         id="path2968" /></clipPath><radialGradient
       inkscape:collect="always"
       xlink:href="#radialGradient2644"
       id="radialGradient3129"
       gradientUnits="userSpaceOnUse"
       gradientTransform="matrix(42.9428,0,0,-42.9428,155.14,533.4193)"
       spreadMethod="pad"
       cx="0"
       cy="0"
       fx="0"
       fy="0"
       r="1" /><radialGradient
       inkscape:collect="always"
       xlink:href="#radialGradient2644"
       id="radialGradient3162"
       gradientUnits="userSpaceOnUse"
       gradientTransform="matrix(42.9428,0,0,-42.9428,155.14,533.4193)"
       spreadMethod="pad"
       cx="0"
       cy="0"
       fx="0"
       fy="0"
       r="1" /></defs><sodipodi:namedview
     inkscape:window-height="1371"
     inkscape:window-width="3398"
     inkscape:pageshadow="2"
     inkscape:pageopacity="0.0"
     guidetolerance="10.0"
     gridtolerance="10.0"
     objecttolerance="10.0"
     borderopacity="1.0"
     bordercolor="#666666"
     pagecolor="#ffffff"
     id="base"
     showgrid="false"
     inkscape:zoom="4.98"
     inkscape:cx="62.751004"
     inkscape:cy="59.136546"
     inkscape:window-x="0"
     inkscape:window-y="0"
     inkscape:current-layer="g2452"
     inkscape:showpageshadow="2"
     inkscape:pagecheckerboard="0"
     inkscape:deskcolor="#d1d1d1"
     inkscape:window-maximized="1" /><g
     id="g2452"
     inkscape:groupmode="layer"
     inkscape:label="T-CahierDesNormesA4-19"
     transform="matrix(1.25,0,0,-1.25,-133.74787,706.34781)"><g
       id="g2628"
       clip-path="url(#clipPath2630)"
       transform="translate(0.3999997,-1.2021287)"><g
         id="g2634"><g
           id="g2636"><g
             id="g2642"><path
               d="m 145.9594,559.4358 c -9.1453,0.5642 -17.3945,-3.0093 -24.5179,-10.6226 -9.2742,-9.9127 -9.0985,-16.8549 -6.568,-29.2877 1.659,-8.1471 6.4957,-16.0134 13.2699,-21.5818 7.8746,-6.4717 17.1278,-8.1377 26.7566,-4.8145 10.6116,3.6632 20.762,14.1493 24.686,25.5009 4.2732,12.3726 0.9896,23.5885 -9.0116,30.7697 -8.61,6.1837 -16.8908,9.5595 -24.615,10.036"
               style="fill:url(#radialGradient3162);stroke:none"
               id="path2650" /></g></g></g><g
         id="g2652"><path
           d="m 142.7422,498.0352 c 0,-0.2851 0.2297,-0.3864 0.8969,-0.3864 0.561,0 0.9157,0.0737 0.9157,0.4184 0,0.3405 -0.3505,0.4189 -0.879,0.4189 -0.5929,0 -0.9336,-0.0692 -0.9336,-0.4509 z m 1.8399,0.4509 v -0.009 c 0.1609,-0.0649 0.368,-0.1885 0.368,-0.5437 0,-0.5783 -0.4833,-0.8091 -1.3336,-0.8091 -1.1004,0 -1.2703,0.3867 -1.2703,0.764 0,0.2663 0.1336,0.4687 0.3546,0.5608 v 0.01 h -1.0992 v 0.4967 h 3.2844 v -0.4691"
           style="fill:#ffffff;fill-opacity:1;fill-rule:nonzero;stroke:none"
           id="path2654" /><path
           d="m 143.3719,500.6573 h -0.1328 c -0.3133,0 -0.5523,-0.1021 -0.5523,-0.3829 0,-0.3164 0.3125,-0.4132 0.6344,-0.4132 h 0.0507 z m 0.3407,-0.7961 h 0.1429 c 0.3313,0 0.7539,0.0412 0.7539,0.4132 0,0.3548 -0.4051,0.3969 -0.5515,0.3969 v 0.4687 c 0.5469,0 0.8922,-0.3316 0.8922,-0.8688 0,-0.406 -0.1196,-0.9068 -1.2649,-0.9068 -0.6484,0 -1.339,0.138 -1.339,0.9152 0,0.69 0.4136,0.8744 1.1046,0.8744 h 0.2618 z m -2.286,0.4784 v 0.552 l 0.6625,-0.4876 v -0.3412"
           style="fill:#ffffff;fill-opacity:1;fill-rule:nonzero;stroke:none"
           id="path2656" /><path
           d="m 144.5548,502.4556 c 0,0.2844 -0.2118,0.414 -0.8969,0.414 -0.5617,0 -0.9157,-0.074 -0.9157,-0.4187 0,-0.3405 0.3493,-0.4189 0.8782,-0.4189 0.5933,0 0.9344,0.074 0.9344,0.4236 z m -2.1438,-0.8928 v 0.4692 h 0.3031 v 0.009 c -0.2203,0.102 -0.3679,0.2853 -0.3679,0.5569 0,0.5659 0.4836,0.7955 1.3343,0.7955 1.0395,0 1.2696,-0.4224 1.2696,-0.7631 0,-0.2669 -0.1336,-0.4697 -0.3539,-0.5621 v -0.008 h 1.0988 v -0.4972"
           style="fill:#ffffff;fill-opacity:1;fill-rule:nonzero;stroke:none"
           id="path2658" /><path
           d="m 143.579,504.9304 c 0.1015,-0.1292 0.1609,-0.4048 0.2301,-0.5524 0.0691,-0.1424 0.2163,-0.202 0.4003,-0.202 0.2071,0 0.3727,0.1008 0.3727,0.308 0,0.2984 -0.2258,0.4464 -0.5891,0.4464 z m 0.7914,0.4697 c 0.0922,0 0.175,0.0543 0.175,0.1275 0,0.0328 -0.005,0.0656 -0.0145,0.0832 h 0.3223 c 0.0273,-0.0596 0.0602,-0.1472 0.0602,-0.2436 0,-0.2204 -0.0876,-0.4052 -0.3266,-0.4192 v -0.009 c 0.2437,-0.1328 0.3633,-0.3264 0.3633,-0.6156 0,-0.396 -0.2215,-0.6444 -0.6946,-0.6444 -0.5523,0 -0.6672,0.24 -0.7773,0.5748 l -0.1063,0.3873 c -0.0507,0.1791 -0.1007,0.2895 -0.3171,0.2895 -0.225,0 -0.368,-0.078 -0.368,-0.3403 0,-0.3317 0.2344,-0.3781 0.4742,-0.3781 v -0.4684 c -0.525,0 -0.8148,0.2156 -0.8148,0.8688 0,0.4372 0.1699,0.7877 0.6078,0.7877"
           style="fill:#ffffff;fill-opacity:1;fill-rule:nonzero;stroke:none"
           id="path2660" /><path
           d="m 143.1329,506.9724 h -0.0645 c -0.1972,0 -0.3816,-0.0688 -0.3816,-0.3268 0,-0.1976 0.0918,-0.3536 0.3218,-0.3536 0.1938,0 0.2719,0.0872 0.3633,0.3492 l 0.111,0.3172 c 0.1242,0.368 0.3219,0.538 0.7121,0.538 0.5293,0 0.7551,-0.386 0.7551,-0.8871 0,-0.6261 -0.2899,-0.8144 -0.768,-0.8144 h -0.0922 v 0.4415 h 0.0781 c 0.2852,0 0.4414,0.1008 0.4414,0.3869 0,0.2707 -0.1382,0.4043 -0.3632,0.4043 -0.1844,0 -0.3032,-0.0968 -0.3633,-0.2716 l -0.143,-0.4048 c -0.1281,-0.3728 -0.3172,-0.5284 -0.7125,-0.5284 -0.4652,0 -0.6812,0.3356 -0.6812,0.8456 0,0.6305 0.3679,0.7736 0.6761,0.7736 h 0.1106"
           style="fill:#ffffff;fill-opacity:1;fill-rule:nonzero;stroke:none"
           id="path2662" /><path
           d="m 143.1329,508.9316 h -0.0645 c -0.1972,0 -0.3816,-0.0688 -0.3816,-0.3263 0,-0.1977 0.0918,-0.3541 0.3218,-0.3541 0.1938,0 0.2719,0.0876 0.3633,0.3493 l 0.111,0.3179 c 0.1242,0.3672 0.3219,0.5376 0.7121,0.5376 0.5293,0 0.7551,-0.386 0.7551,-0.8875 0,-0.6257 -0.2899,-0.8141 -0.768,-0.8141 h -0.0922 v 0.4412 h 0.0781 c 0.2852,0 0.4414,0.1016 0.4414,0.3869 0,0.2711 -0.1382,0.4047 -0.3632,0.4047 -0.1844,0 -0.3032,-0.0968 -0.3633,-0.272 l -0.143,-0.4048 c -0.1281,-0.3716 -0.3172,-0.5288 -0.7125,-0.5288 -0.4652,0 -0.6812,0.336 -0.6812,0.846 0,0.6309 0.3679,0.7736 0.6761,0.7736 h 0.1106"
           style="fill:#ffffff;fill-opacity:1;fill-rule:nonzero;stroke:none"
           id="path2664" /><path
           d="m 143.3719,511.048 h -0.1328 c -0.3133,0 -0.5523,-0.1016 -0.5523,-0.382 0,-0.3172 0.3125,-0.414 0.6344,-0.414 h 0.0507 z m 0.3407,-0.796 h 0.1429 c 0.3313,0 0.7539,0.0416 0.7539,0.414 0,0.354 -0.4051,0.3952 -0.5515,0.3952 v 0.4697 c 0.5469,0 0.8922,-0.3313 0.8922,-0.8696 0,-0.4045 -0.1196,-0.9061 -1.2649,-0.9061 -0.6484,0 -1.339,0.1384 -1.339,0.9157 0,0.6895 0.4136,0.8739 1.1046,0.8739 h 0.2618"
           style="fill:#ffffff;fill-opacity:1;fill-rule:nonzero;stroke:none"
           id="path2666" /><path
           d="m 142.411,511.9544 v 0.4968 h 0.3856 v 0.009 c -0.2754,0.1108 -0.4504,0.2945 -0.4504,0.5749 0,0.0556 0.009,0.0875 0.0187,0.1195 h 0.5063 c -0.009,-0.0368 -0.0282,-0.1236 -0.0282,-0.2063 0,-0.2257 0.1016,-0.4969 0.5618,-0.4969 h 1.4812 v -0.4968"
           style="fill:#ffffff;fill-opacity:1;fill-rule:nonzero;stroke:none"
           id="path2668" /><path
           d="m 141.6016,514.4076 h 3.2844 v 0.2756 h -3.2844 z"
           style="fill:#ffffff;fill-opacity:1;fill-rule:nonzero;stroke:none"
           id="path2670" /><path
           d="m 143.4462,516.4677 c -0.6079,-0.009 -0.8282,-0.1789 -0.8282,-0.5196 0,-0.3405 0.2203,-0.5108 0.8282,-0.5205 z m 0.6296,0.2719 c 0.5204,-0.0415 0.8649,-0.3276 0.8649,-0.7867 0,-0.5156 -0.3586,-0.8189 -1.2789,-0.8189 -0.8465,0 -1.2742,0.3033 -1.2742,0.8416 0,0.5428 0.3722,0.7864 1.1867,0.7864 h 0.1015 v -1.3344 h 0.1145 c 0.7039,0 0.9203,0.2489 0.9203,0.5205 0,0.2899 -0.207,0.4688 -0.6348,0.5147"
           style="fill:#ffffff;fill-opacity:1;fill-rule:nonzero;stroke:none"
           id="path2672" /><path
           d="m 143.6712,517.5808 c -0.134,-0.3451 -0.336,-0.4688 -0.5797,-0.4688 -0.5016,0 -0.7039,0.3129 -0.7039,0.7268 0,0.46 0.2355,0.6716 0.6808,0.6716 h 0.0692 v -0.2764 h -0.0692 c -0.3168,0 -0.4504,-0.1468 -0.4504,-0.4 0,-0.322 0.17,-0.4459 0.4137,-0.4459 0.1707,0 0.3035,0.0556 0.4098,0.3311 l 0.1515,0.4001 c 0.1242,0.3311 0.3539,0.4556 0.6207,0.4556 0.4192,0 0.727,-0.2393 0.727,-0.7548 0,-0.5017 -0.2071,-0.75 -0.7586,-0.75 h -0.0781 v 0.2763 h 0.064 c 0.3586,0 0.5426,0.1564 0.5426,0.4688 0,0.2948 -0.1652,0.4836 -0.4363,0.4836 -0.2164,0 -0.3547,-0.0876 -0.4516,-0.3311"
           style="fill:#ffffff;fill-opacity:1;fill-rule:nonzero;stroke:none"
           id="path2674" /><path
           d="m 142.7786,520.1374 v -0.3449 h -0.3676 v 0.3449 h -0.2305 c -0.4687,0 -0.6164,0.225 -0.6164,0.6303 0,0.1052 0.004,0.1976 0.0137,0.2712 h 0.3824 v -0.1378 c 0,-0.1842 0.0684,-0.2668 0.2344,-0.2668 h 0.2164 v 0.4046 h 0.3676 v -0.4046 h 2.1074 v -0.4969"
           style="fill:#ffffff;fill-opacity:1;fill-rule:nonzero;stroke:none"
           id="path2676" /><path
           d="m 142.411,521.2644 v 0.4968 h 0.3856 v 0.009 c -0.2754,0.1109 -0.4504,0.2945 -0.4504,0.5746 0,0.0557 0.009,0.0877 0.0187,0.1199 h 0.5063 c -0.009,-0.0369 -0.0282,-0.1242 -0.0282,-0.2066 0,-0.2254 0.1016,-0.4969 0.5618,-0.4969 h 1.4812 v -0.4968"
           style="fill:#ffffff;fill-opacity:1;fill-rule:nonzero;stroke:none"
           id="path2678" /><path
           d="m 144.5821,523.5366 c 0,0.3631 -0.3043,0.4281 -0.9336,0.4281 -0.5477,0 -0.9344,-0.065 -0.9344,-0.4281 0,-0.3588 0.3867,-0.4228 0.9344,-0.4228 0.6293,0 0.9336,0.064 0.9336,0.4228 z m -2.2359,0 c 0,0.7227 0.5336,0.925 1.3023,0.925 0.768,0 1.3016,-0.2348 1.3016,-0.925 0,-0.6854 -0.5336,-0.9197 -1.3016,-0.9197 -0.7687,0 -1.3023,0.2018 -1.3023,0.9197"
           style="fill:#ffffff;fill-opacity:1;fill-rule:nonzero;stroke:none"
           id="path2680" /><path
           d="m 142.411,524.8427 v 0.4697 h 0.2898 v 0.0138 c -0.221,0.1237 -0.3546,0.3589 -0.3546,0.6346 0,0.3772 0.1699,0.6162 0.6719,0.6162 h 1.8679 v -0.4969 h -1.6976 c -0.3219,0 -0.4462,-0.0958 -0.4462,-0.3443 0,-0.2027 0.161,-0.3963 0.4829,-0.3963 h 1.6609 v -0.4968"
           style="fill:#ffffff;fill-opacity:1;fill-rule:nonzero;stroke:none"
           id="path2682" /><path
           d="m 142.411,526.8348 v 0.3401 h -0.7039 v 0.4969 h 0.7039 v 0.4049 h 0.3676 v -0.4049 h 1.4769 c 0.1926,0 0.2625,0.0554 0.2625,0.2257 0,0.0735 -0.005,0.1334 -0.0144,0.1792 h 0.3683 c 0.0274,-0.1057 0.0415,-0.2439 0.0415,-0.3999 0,-0.3365 -0.0922,-0.5019 -0.5985,-0.5019 h -1.5363 v -0.3401"
           style="fill:#ffffff;fill-opacity:1;fill-rule:nonzero;stroke:none"
           id="path2684" /><path
           d="m 142.411,528.3575 v 0.4969 h 2.475 v -0.4969 z m -0.8469,0 v 0.4969 h 0.4969 v -0.4969"
           style="fill:#ffffff;fill-opacity:1;fill-rule:nonzero;stroke:none"
           id="path2686" /><path
           d="m 143.3719,530.5794 h -0.1328 c -0.3133,0 -0.5523,-0.1016 -0.5523,-0.3818 0,-0.3177 0.3125,-0.4143 0.6344,-0.4143 h 0.0507 z m 0.3407,-0.7961 h 0.1429 c 0.3313,0 0.7539,0.0414 0.7539,0.4143 0,0.3537 -0.4051,0.3952 -0.5515,0.3952 v 0.4696 c 0.5469,0 0.8922,-0.3314 0.8922,-0.8696 0,-0.4048 -0.1196,-0.9064 -1.2649,-0.9064 -0.6484,0 -1.339,0.1385 -1.339,0.9154 0,0.6903 0.4136,0.8739 1.1046,0.8739 h 0.2618 z m -2.286,-0.1194 v 0.5514 l 0.6625,0.2766 v -0.3405"
           style="fill:#ffffff;fill-opacity:1;fill-rule:nonzero;stroke:none"
           id="path2688" /><path
           d="m 142.411,531.4857 v 0.496 h 0.3856 v 0.009 c -0.2754,0.1107 -0.4504,0.2948 -0.4504,0.5752 0,0.0555 0.009,0.0874 0.0187,0.1197 h 0.5063 c -0.009,-0.0368 -0.0282,-0.1244 -0.0282,-0.2074 0,-0.225 0.1016,-0.4969 0.5618,-0.4969 h 1.4812 v -0.496"
           style="fill:#ffffff;fill-opacity:1;fill-rule:nonzero;stroke:none"
           id="path2690" /><path
           d="m 143.3719,534.1311 h -0.1328 c -0.3133,0 -0.5523,-0.1016 -0.5523,-0.3822 0,-0.317 0.3125,-0.4139 0.6344,-0.4139 h 0.0507 z m 0.3407,-0.7961 h 0.1429 c 0.3313,0 0.7539,0.0414 0.7539,0.4139 0,0.3541 -0.4051,0.3956 -0.5515,0.3956 v 0.4695 c 0.5469,0 0.8922,-0.3313 0.8922,-0.8697 0,-0.4046 -0.1196,-0.9061 -1.2649,-0.9061 -0.6484,0 -1.339,0.138 -1.339,0.9154 0,0.6899 0.4136,0.8744 1.1046,0.8744 h 0.2618"
           style="fill:#ffffff;fill-opacity:1;fill-rule:nonzero;stroke:none"
           id="path2692" /><path
           d="m 143.1329,536.1046 h -0.0645 c -0.1972,0 -0.3816,-0.0687 -0.3816,-0.3266 0,-0.198 0.0918,-0.3545 0.3218,-0.3545 0.1938,0 0.2719,0.0875 0.3633,0.3498 l 0.111,0.3172 c 0.1242,0.3678 0.3219,0.5383 0.7121,0.5383 0.5293,0 0.7551,-0.3863 0.7551,-0.8883 0,-0.625 -0.2899,-0.8139 -0.768,-0.8139 h -0.0922 v 0.4421 h 0.0781 c 0.2852,0 0.4414,0.1005 0.4414,0.386 0,0.2717 -0.1382,0.4044 -0.3632,0.4044 -0.1844,0 -0.3032,-0.0959 -0.3633,-0.271 l -0.143,-0.4048 c -0.1281,-0.3725 -0.3172,-0.5289 -0.7125,-0.5289 -0.4652,0 -0.6812,0.3361 -0.6812,0.8463 0,0.6303 0.3679,0.773 0.6761,0.773 h 0.1106"
           style="fill:#ffffff;fill-opacity:1;fill-rule:nonzero;stroke:none"
           id="path2694" /><path
           d="m 134.7106,527.1761 h -2.3332 l -0.003,-0.0661 c -0.0188,-0.4525 -0.2875,-4.4222 -3.8398,-4.4222 -3.1743,0 -4.7852,2.8447 -4.7883,8.4556 0.003,5.611 1.614,8.4559 4.7883,8.4559 3.6128,0 3.8327,-4.2418 3.8398,-4.4221 l 0.003,-0.0656 h 2.3332 c 0.2156,0 0.4246,0.0883 0.5746,0.2422 0.1434,0.1478 0.2176,0.3391 0.2078,0.5381 -0.0484,1.1008 -0.6125,6.5924 -6.9914,6.5924 -5.1543,0 -7.8789,-3.9172 -7.8789,-11.329 0,-7.4265 2.7246,-11.3525 7.8789,-11.3525 6.1387,0 6.9028,5.0156 6.9906,6.5525 0.0157,0.2124 -0.0578,0.4161 -0.2062,0.5725 -0.1492,0.158 -0.3593,0.2483 -0.5754,0.2483"
           style="fill:#ffffff;fill-opacity:1;fill-rule:nonzero;stroke:none"
           id="path2696" /><path
           d="m 168.566,532.4921 8e-4,-8e-4 -2.0096,0.8766 c -1.9328,0.8491 -2.618,1.6748 -2.618,3.1577 0,1.9329 1.4136,3.2322 3.5184,3.2322 1.244,0 2.2648,-0.2552 3.5108,-1.5243 l 0.0684,-0.0696 1.0724,0.9811 c 0.6212,0.5766 0.4412,1.0959 0.182,1.4296 -1.0464,1.2343 -2.7256,1.912 -4.7308,1.912 -3.868,0 -6.6752,-2.523 -6.6752,-5.9994 0,-3.4186 2.154,-4.8477 4.4812,-5.8822 l 2.05,-0.9155 c 2.0612,-0.9242 3.0428,-1.7123 3.0428,-3.6951 0,-2.7041 -2.444,-3.4251 -3.8876,-3.4251 -1.2424,0 -2.6252,0.2657 -4.3244,2.1907 l -0.0664,0.0758 -1.1172,-0.9814 c -0.5744,-0.5053 -0.5796,-0.9391 -0.0192,-1.6596 1.538,-1.977 3.7928,-2.392 5.4144,-2.392 3.5048,0 7.0544,2.1533 7.0544,6.268 0,3.5617 -1.9776,5.1429 -4.9472,6.4213"
           style="fill:#66cde2;fill-opacity:1;fill-rule:nonzero;stroke:none"
           id="path2698" /><path
           d="m 150.3512,535.995 c 0,3.5016 -2.8375,6.4682 -6.3402,6.4682 -1.6476,0 -3.1476,-0.6281 -4.275,-1.6585 v 1.2038 h -2.1094 c -0.6359,0 -0.8781,-0.4149 -0.8781,-0.8914 v -20.433 c 0,-0.5748 0.3508,-0.8823 0.8684,-0.8823 h 2.1097 c 0,0 0,16.0684 0,16.0692 0,2.1107 1.7114,3.8225 3.8227,3.8225 2.1109,0 3.823,-1.7118 3.823,-3.8225 0,-8e-4 0,-16.0721 0,-16.0721 h 2.0961 c 0.5813,0 0.8828,0.3227 0.8828,0.8791 0,0 0,15.2969 0,15.317"
           style="fill:#66cde2;fill-opacity:1;fill-rule:nonzero;stroke:none"
           id="path2700" /><path
           d="m 161.2464,540.9357 c 0.1104,0.1366 0.1784,0.3083 0.1784,0.4968 0,0.3516 -0.2296,0.6469 -0.5444,0.7541 -0.6104,0.2043 -1.2604,0.3164 -1.9364,0.3164 -1.6476,0 -3.1476,-0.6281 -4.2752,-1.6582 v 1.2035 h -2.1094 c -0.6355,0 -0.8785,-0.4148 -0.8785,-0.8916 v -20.4326 c 0,-0.5752 0.352,-0.8826 0.8692,-0.8826 h 2.1095 c 0,0 0,16.0684 0,16.0691 0,2.1112 1.712,3.8229 3.8232,3.8229 0.5532,0 1.0776,-0.1202 1.552,-0.3315 l 1.2188,1.5293"
           style="fill:#ffffff;fill-opacity:1;fill-rule:nonzero;stroke:none"
           id="path2702" /></g></g></g></svg>
