<?xml version="1.0" encoding="UTF-8" standalone="no"?>
<!-- Created with Inkscape (http://www.inkscape.org/) -->

<svg
   width="48.954678mm"
   height="48.954678mm"
   viewBox="0 0 48.954678 48.954678"
   version="1.1"
   id="svg1"
   xml:space="preserve"
   inkscape:version="1.3.2 (091e20e, 2023-11-25)"
   sodipodi:docname="jump_top.svg"
   inkscape:export-filename="jump_top.png"
   inkscape:export-xdpi="20.753889"
   inkscape:export-ydpi="20.753889"
   xmlns:inkscape="http://www.inkscape.org/namespaces/inkscape"
   xmlns:sodipodi="http://sodipodi.sourceforge.net/DTD/sodipodi-0.dtd"
   xmlns:xlink="http://www.w3.org/1999/xlink"
   xmlns="http://www.w3.org/2000/svg"
   xmlns:svg="http://www.w3.org/2000/svg"><sodipodi:namedview
     id="namedview1"
     pagecolor="#ffffff"
     bordercolor="#666666"
     borderopacity="1.0"
     inkscape:showpageshadow="2"
     inkscape:pageopacity="0.0"
     inkscape:pagecheckerboard="0"
     inkscape:deskcolor="#d1d1d1"
     inkscape:document-units="mm"
     inkscape:zoom="1.0262626"
     inkscape:cx="221.19094"
     inkscape:cy="-57.490158"
     inkscape:window-width="1878"
     inkscape:window-height="1016"
     inkscape:window-x="42"
     inkscape:window-y="27"
     inkscape:window-maximized="1"
     inkscape:current-layer="layer1" /><defs
     id="defs1"><linearGradient
       id="linearGradient1"
       inkscape:collect="always"><stop
         style="stop-color:#d60c96;stop-opacity:1;"
         offset="0"
         id="stop1" /><stop
         style="stop-color:#9f1db5;stop-opacity:1;"
         offset="1"
         id="stop2" /></linearGradient><style
       id="style1">.cls-1{fill:#da3380;}.cls-2{fill:#f55fa6;}.cls-3{fill:#6c2e7c;}</style><linearGradient
       inkscape:collect="always"
       xlink:href="#linearGradient1"
       id="linearGradient2"
       x1="11.805515"
       y1="-0.19448484"
       x2="11.805515"
       y2="23.653992"
       gradientUnits="userSpaceOnUse" /></defs><g
     inkscape:label="Calque 1"
     inkscape:groupmode="layer"
     id="layer1"
     transform="translate(-104.2492,-145.54255)"><path
       class="cls-1"
       d="m 151.1641,170.01391 a 22.437561,22.437561 0 0 1 -44.87512,0 22.08468,22.08468 0 0 1 0.59153,-5.09945 22.437561,22.437561 0 0 1 43.69206,0 22.08468,22.08468 0 0 1 0.59153,5.09945 z"
       id="path1"
       style="fill:#ffffff;fill-opacity:0.334009;stroke-width:2.03978" /><g
       data-name="Layer 4"
       id="Layer_4"
       transform="matrix(2.0397783,0,0,2.0397783,104.2492,145.54255)"
       style="fill:url(#linearGradient2);fill-opacity:1;stroke:none"><path
         class="cls-3"
         d="M 12,0 A 12,12 0 1 0 24,12 12.013,12.013 0 0 0 12,0 Z m 0,22 A 10,10 0 1 1 22,12 10.011,10.011 0 0 1 12,22 Z"
         id="path2"
         style="fill:url(#linearGradient2);fill-opacity:1;stroke:none" /><path
         class="cls-3"
         d="m 12.707,5.293 a 1,1 0 0 0 -1.414,0 l -4,4 a 1,1 0 1 0 1.414,1.414 L 11,8.414 V 18 a 1,1 0 0 0 2,0 V 8.414 l 2.293,2.293 a 1,1 0 0 0 1.414,-1.414 z"
         id="path3"
         style="fill:url(#linearGradient2);fill-opacity:1;stroke:none" /></g></g></svg>
