<?xml version="1.0" encoding="UTF-8" standalone="no"?>
<!-- Created with Inkscape (http://www.inkscape.org/) -->

<svg
   width="732.74762"
   height="228.09256"
   id="svg3644"
   version="1.1"
   inkscape:version="1.4 (e7c3feb, 2024-10-09)"
   sodipodi:docname="logo_h2gis.svg"
   inkscape:export-filename="logo_h2gis_text.png"
   inkscape:export-xdpi="122.83"
   inkscape:export-ydpi="122.83"
   xmlns:inkscape="http://www.inkscape.org/namespaces/inkscape"
   xmlns:sodipodi="http://sodipodi.sourceforge.net/DTD/sodipodi-0.dtd"
   xmlns:xlink="http://www.w3.org/1999/xlink"
   xmlns="http://www.w3.org/2000/svg"
   xmlns:svg="http://www.w3.org/2000/svg"
   xmlns:rdf="http://www.w3.org/1999/02/22-rdf-syntax-ns#"
   xmlns:cc="http://creativecommons.org/ns#"
   xmlns:dc="http://purl.org/dc/elements/1.1/">
  <defs
     id="defs3646">
    <rect
       x="-40.406101"
       y="490.93414"
       width="1254.6095"
       height="299.00516"
       id="rect1" />
    <clipPath
       clipPathUnits="userSpaceOnUse"
       id="clipPath3433">
      <path
         inkscape:connector-curvature="0"
         id="path3435"
         d="m 249.55909,-132.26955 c 7.53673,-7.49236 76.40196,-33.53871 175.66371,-35.32114 v 74.388471 H 250.13884 Z"
         style="fill:none;stroke:#000000;stroke-width:1.10283px;stroke-linecap:butt;stroke-linejoin:miter;stroke-opacity:1"
         sodipodi:nodetypes="ccccc" />
    </clipPath>
    <mask
       maskUnits="userSpaceOnUse"
       id="mask4634">
      <rect
         transform="matrix(-0.850874,-0.52536981,-0.5423145,0.84017556,0,0)"
         style="fill:#ffffff;fill-opacity:1;stroke:#ffffff;stroke-width:12.4938;stroke-miterlimit:4;stroke-dasharray:none;stroke-opacity:1"
         id="rect4636"
         width="79.509987"
         height="142.33766"
         x="-461.36166"
         y="600.20245" />
    </mask>
    <linearGradient
       id="linearGradient3818">
      <stop
         style="stop-color:#ffffff;stop-opacity:0.59574467;"
         offset="0"
         id="stop3820" />
      <stop
         style="stop-color:#ffffff;stop-opacity:0;"
         offset="1"
         id="stop3822" />
    </linearGradient>
    <clipPath
       clipPathUnits="userSpaceOnUse"
       id="clipPath4623">
      <rect
         transform="matrix(-0.850874,-0.52536981,-0.5423145,0.84017556,0,0)"
         style="fill:none;stroke:#2dffff;stroke-width:1.0001;stroke-miterlimit:4;stroke-dasharray:none;stroke-opacity:1"
         id="rect4625"
         width="60.807083"
         height="108.85598"
         x="22.168039"
         y="-530.62726" />
    </clipPath>
    <clipPath
       clipPathUnits="userSpaceOnUse"
       id="clipPath4609">
      <circle
         style="fill:none;stroke:#000000;stroke-opacity:1"
         id="path4611"
         transform="matrix(1.0362173,0,0,1.0362173,-80.314028,-27.999474)"
         cx="205.89285"
         cy="635.04077"
         r="88.75" />
    </clipPath>
    <linearGradient
       id="linearGradient3597">
      <stop
         style="stop-color:#ffffff;stop-opacity:0.59574467;"
         offset="0"
         id="stop3599" />
      <stop
         style="stop-color:#ffffff;stop-opacity:0;"
         offset="1"
         id="stop3601" />
    </linearGradient>
    <radialGradient
       inkscape:collect="always"
       xlink:href="#linearGradient3818"
       id="radialGradient3119"
       gradientUnits="userSpaceOnUse"
       gradientTransform="matrix(2.300752,0.03317942,-0.05498942,1.5954117,834.34779,-675.62238)"
       cx="-351.50684"
       cy="934.28613"
       fx="-351.50684"
       fy="934.28613"
       r="54.03125" />
    <radialGradient
       inkscape:collect="always"
       xlink:href="#linearGradient3818"
       id="radialGradient3121"
       gradientUnits="userSpaceOnUse"
       gradientTransform="matrix(1.4927392,-1.6537999e-7,1.7018383e-7,1.5360991,-68.50503,-316.05486)"
       cx="139.02878"
       cy="589.54565"
       fx="139.02878"
       fy="589.54565"
       r="88.75" />
  </defs>
  <sodipodi:namedview
     id="base"
     pagecolor="#ffffff"
     bordercolor="#666666"
     borderopacity="1.0"
     inkscape:pageopacity="0.0"
     inkscape:pageshadow="2"
     inkscape:zoom="1.4"
     inkscape:cx="386.78571"
     inkscape:cy="211.78571"
     inkscape:document-units="px"
     inkscape:current-layer="layer1"
     showgrid="false"
     width="1051.3622px"
     inkscape:window-width="3398"
     inkscape:window-height="1371"
     inkscape:window-x="26"
     inkscape:window-y="23"
     inkscape:window-maximized="0"
     fit-margin-top="0"
     fit-margin-left="0"
     fit-margin-right="0"
     fit-margin-bottom="0"
     inkscape:showpageshadow="2"
     inkscape:pagecheckerboard="0"
     inkscape:deskcolor="#d1d1d1"
     showguides="true" />
  <metadata
     id="metadata3649">
    <rdf:RDF>
      <cc:Work
         rdf:about="">
        <dc:format>image/svg+xml</dc:format>
        <dc:type
           rdf:resource="http://purl.org/dc/dcmitype/StillImage" />
      </cc:Work>
    </rdf:RDF>
  </metadata>
  <g
     inkscape:label="Calque 1"
     inkscape:groupmode="layer"
     id="layer1"
     transform="translate(-24.340464,-1115.7047)">
    <g
       id="g1">
      <g
         transform="matrix(7.1571799,0,0,7.1571799,-630.42102,-1287.2875)"
         style="font-style:normal;font-weight:normal;font-size:40px;line-height:125%;font-family:Sans;letter-spacing:0px;word-spacing:0px;fill:#999999;fill-opacity:1;stroke:none"
         id="flowRoot3075">
        <path
           d="m 129.39062,337.36606 h 7.51954 v 11.11328 h 11.09375 v -11.11328 h 7.51953 v 29.16016 h -7.51953 v -12.36328 h -11.09375 v 12.36328 h -7.51954 v -29.16016"
           style="font-variant:normal;font-weight:bold;font-stretch:normal;font-family:Dingbats;-inkscape-font-specification:'Dingbats Bold';fill:#999999"
           id="path3190"
           inkscape:connector-curvature="0" />
      </g>
      <g
         id="g3083"
         transform="matrix(2.230845,0,0,2.230845,-81.562344,1916.8618)">
        <g
           id="g3085"
           transform="translate(0,156.57364)">
          <g
             transform="matrix(3.208282,0,0,3.208282,-155.11801,-1592.8677)"
             style="font-style:normal;font-weight:normal;font-size:40px;line-height:125%;font-family:Sans;letter-spacing:0px;word-spacing:0px;fill:#999999;fill-opacity:1;stroke:none"
             id="flowRoot3087">
            <path
               d="m 137.24219,360.99887 h 12.83203 v 5.52735 h -21.19141 v -5.52735 l 10.64453,-9.39453 c 0.95051,-0.85936 1.65363,-1.6992 2.10938,-2.51953 0.45571,-0.82029 0.68358,-1.67316 0.68359,-2.55859 -1e-5,-1.36717 -0.46225,-2.46743 -1.38672,-3.30078 -0.91147,-0.83331 -2.12892,-1.24998 -3.65234,-1.25 -1.17189,2e-5 -2.45444,0.25393 -3.84766,0.76171 -1.39323,0.49482 -2.88412,1.23701 -4.47265,2.22657 v -6.40625 c 1.6927,-0.55987 3.36588,-0.98305 5.01953,-1.26953 1.65363,-0.29945 3.27473,-0.44919 4.86328,-0.44922 3.48957,3e-5 6.1979,0.76825 8.125,2.30468 1.94008,1.53649 2.91013,3.67841 2.91016,6.42579 -3e-5,1.58856 -0.41018,3.07293 -1.23047,4.45312 -0.82034,1.3672 -2.5456,3.20314 -5.17578,5.50781 l -6.23047,5.46875"
               style="font-variant:normal;font-weight:bold;font-stretch:normal;font-family:Dingbats;-inkscape-font-specification:'Dingbats Bold';fill:#999999"
               id="path3187"
               inkscape:connector-curvature="0" />
          </g>
        </g>
      </g>
      <g
         inkscape:export-ydpi="90"
         inkscape:export-xdpi="90"
         inkscape:export-filename="/home/gwendall/Documents/OrbisGIS/H2GIS/Logo/logo_h2gis.png"
         transform="matrix(2.230845,0,0,2.230845,-284.37678,1564.19)"
         style="fill:#b3b3b3"
         clip-path="url(#clipPath3433)"
         id="g3095">
        <g
           style="fill:#b3b3b3"
           id="g3097"
           transform="translate(0,165.15992)">
          <g
             transform="matrix(3.208282,0,0,3.208282,-155.11801,-1443.3651)"
             style="font-style:normal;font-weight:normal;font-size:40px;line-height:125%;font-family:Sans;letter-spacing:0px;word-spacing:0px;fill:#b3b3b3;fill-opacity:1;stroke:none"
             id="flowRoot3099">
            <path
               d="m 129.39062,337.36606 h 7.51954 v 11.11328 h 11.09375 v -11.11328 h 7.51953 v 29.16016 h -7.51953 v -12.36328 h -11.09375 v 12.36328 h -7.51954 v -29.16016"
               style="font-variant:normal;font-weight:bold;font-stretch:normal;font-family:Dingbats;-inkscape-font-specification:'Dingbats Bold';fill:#b3b3b3"
               id="path3181"
               inkscape:connector-curvature="0" />
          </g>
        </g>
        <g
           style="fill:#b3b3b3"
           id="g3107"
           transform="translate(90.913728,158.08888)">
          <g
             style="fill:#b3b3b3"
             id="g3109"
             transform="translate(0,156.57364)">
            <g
               transform="matrix(3.208282,0,0,3.208282,-155.11801,-1592.8677)"
               style="font-style:normal;font-weight:normal;font-size:40px;line-height:125%;font-family:Sans;letter-spacing:0px;word-spacing:0px;fill:#b3b3b3;fill-opacity:1;stroke:none"
               id="flowRoot3111">
              <path
                 d="m 137.24219,360.99887 h 12.83203 v 5.52735 h -21.19141 v -5.52735 l 10.64453,-9.39453 c 0.95051,-0.85936 1.65363,-1.6992 2.10938,-2.51953 0.45571,-0.82029 0.68358,-1.67316 0.68359,-2.55859 -1e-5,-1.36717 -0.46225,-2.46743 -1.38672,-3.30078 -0.91147,-0.83331 -2.12892,-1.24998 -3.65234,-1.25 -1.17189,2e-5 -2.45444,0.25393 -3.84766,0.76171 -1.39323,0.49482 -2.88412,1.23701 -4.47265,2.22657 v -6.40625 c 1.6927,-0.55987 3.36588,-0.98305 5.01953,-1.26953 1.65363,-0.29945 3.27473,-0.44919 4.86328,-0.44922 3.48957,3e-5 6.1979,0.76825 8.125,2.30468 1.94008,1.53649 2.91013,3.67841 2.91016,6.42579 -3e-5,1.58856 -0.41018,3.07293 -1.23047,4.45312 -0.82034,1.3672 -2.5456,3.20314 -5.17578,5.50781 l -6.23047,5.46875"
                 style="font-variant:normal;font-weight:bold;font-stretch:normal;font-family:Dingbats;-inkscape-font-specification:'Dingbats Bold';fill:#b3b3b3"
                 id="path3184"
                 inkscape:connector-curvature="0" />
            </g>
          </g>
        </g>
      </g>
      <g
         id="g3039"
         style="display:inline"
         transform="matrix(2.230845,0,0,2.230845,-284.37678,2226.5374)">
        <g
           transform="matrix(0.7083156,0,0,0.7083156,157.01265,-1022.7717)"
           id="g3041"
           mask="url(#mask4634)">
          <path
             inkscape:connector-curvature="0"
             style="fill:#999999;fill-opacity:1;stroke:none"
             d="m 91.878611,770.90676 c 0,0.93434 -0.144397,1.86046 -0.375921,2.76319 -0.231524,0.90273 -0.578246,1.78511 -1.02524,2.65266 -0.446994,0.86756 -0.993986,1.71334 -1.640384,2.54214 -0.646399,0.82879 -1.391593,1.64513 -2.221354,2.4316 -1.659522,1.57295 -3.6498,3.061 -5.946393,4.44321 -2.296593,1.38221 -4.88408,2.66134 -7.689301,3.82426 -2.805221,1.16291 -5.836717,2.20183 -9.022114,3.11687 -3.185396,0.91504 -6.541885,1.70459 -9.979004,2.34319 -3.437119,0.6386 -6.96541,1.12538 -10.525799,1.45896 -3.560388,0.33359 -7.141467,0.50843 -10.696672,0.50843 -3.571499,0 -7.162519,-0.17515 -10.730847,-0.50843 -3.568328,-0.33328 -7.121477,-0.81958 -10.559974,-1.45896 -3.4384965,-0.63939 -6.7628008,-1.42488 -9.9448291,-2.34319 -3.1820283,-0.91831 -6.2232023,-1.96892 -9.0221134,-3.13898 -2.7989115,-1.17006 -5.3659705,-2.47384 -7.6551265,-3.86847 -2.289156,-1.39462 -4.29364,-2.8954 -5.946393,-4.48742 -0.826371,-0.79601 -1.577831,-1.61345 -2.221354,-2.45371 -0.643522,-0.84026 -1.161359,-1.70523 -1.606209,-2.58634 -0.44485,-0.88112 -0.794898,-1.77831 -1.02524,-2.69688 -0.230343,-0.91857 -0.341747,-1.85477 -0.341747,-2.8074 v 81.81252 c 0,15.24209 30.4818279,26.34974 59.053833,26.34974 28.441627,7e-5 59.122182,-11.13488 59.122182,-26.08447 z"
             id="path3043" />
          <path
             inkscape:connector-curvature="0"
             style="fill:#dedede;fill-opacity:1;stroke:none"
             d="m -26.297404,767.50251 v 3.13898 c 0,0.95263 0.111404,1.88883 0.341747,2.8074 0.230342,0.91857 0.58039,1.81576 1.02524,2.69688 0.44485,0.88111 0.962687,1.74608 1.606209,2.58634 0.643523,0.84026 1.394983,1.6577 2.221354,2.45371 1.652753,1.59202 3.657237,3.0928 5.946393,4.48742 2.289156,1.39463 4.856215,2.69841 7.6551265,3.86847 2.7989111,1.17006 5.8400851,2.22067 9.0221134,3.13898 3.1820283,0.91831 6.5063326,1.7038 9.9448291,2.34319 3.438497,0.63938 6.991646,1.12568 10.559974,1.45896 3.568328,0.33328 7.159348,0.50843 10.730847,0.50843 3.555205,0 7.136284,-0.17484 10.696672,-0.50843 3.560389,-0.33358 7.08868,-0.82036 10.525799,-1.45896 3.437119,-0.6386 6.793608,-1.42815 9.979004,-2.34319 3.185397,-0.91504 6.216893,-1.95396 9.022114,-3.11687 2.805221,-1.16292 5.392708,-2.44205 7.689301,-3.82426 2.296593,-1.38221 4.286871,-2.87026 5.946393,-4.44321 0.829761,-0.78647 1.574955,-1.60281 2.221354,-2.4316 0.646398,-0.8288 1.19339,-1.67458 1.640384,-2.54214 0.446994,-0.86755 0.793716,-1.74993 1.02524,-2.65266 0.231524,-0.90273 0.375921,-1.82885 0.375921,-2.76319 v -3.58109 c 0,-15.27412 -30.821431,-26.37189 -59.122182,-26.37189 -28.4409821,0 -59.053833,11.04525 -59.053833,26.54873 z"
             id="path3045" />
          <path
             inkscape:connector-curvature="0"
             id="path3047"
             d="m 91.87861,770.90676 c 0,0.93434 -0.1444,1.86046 -0.37592,2.76319 -0.23152,0.90273 -0.57825,1.78511 -1.02524,2.65266 -0.44699,0.86756 -0.99399,1.71334 -1.64038,2.54214 -0.6464,0.82879 -1.3916,1.64513 -2.22136,2.4316 -1.65952,1.57295 -3.6498,3.061 -5.94639,4.44321 -2.296594,1.38221 -4.884081,2.66134 -7.689302,3.82426 -2.805221,1.16291 -5.836717,2.20183 -9.022114,3.11687 -3.185396,0.91504 -6.541885,1.70459 -9.979004,2.34319 -3.437119,0.6386 -6.96541,1.12538 -10.525799,1.45896 -3.560388,0.33359 -7.141467,0.50843 -10.696672,0.50843 -3.571499,0 -7.162519,-0.17515 -10.730847,-0.50843 -3.568328,-0.33328 -7.121477,-0.81958 -10.559974,-1.45896 -3.438497,-0.63939 -6.762801,-1.42488 -9.944829,-2.34319 -3.182028,-0.91831 -6.223202,-1.96892 -9.022114,-3.13898 -2.798911,-1.17006 -5.36597,-2.47384 -7.655126,-3.86847 -2.289156,-1.39462 -4.29364,-2.8954 -5.946393,-4.48742 -0.826371,-0.79601 -1.577831,-1.61345 -2.221354,-2.45371 -0.643522,-0.84026 -1.161359,-1.70523 -1.606209,-2.58634 -0.44485,-0.88112 -0.794898,-1.77831 -1.02524,-2.69688 -0.230343,-0.91857 -0.341747,-1.85477 -0.341747,-2.8074 v 81.81252 c 0,15.24209 30.481828,26.34974 59.053833,26.34974 28.441627,7e-5 59.122181,-11.13488 59.122181,-26.08447 z"
             style="fill:url(#radialGradient3119);fill-opacity:1;stroke:none" />
        </g>
        <g
           id="g3049"
           clip-path="url(#clipPath4623)">
          <circle
             style="fill:#0092ff;fill-opacity:1;stroke:none"
             id="path3051"
             transform="matrix(0.56261897,0.19821628,-0.19821628,0.56261897,191.42015,-846.73564)"
             cx="205.89285"
             cy="635.04077"
             r="88.75" />
          <g
             clip-path="url(#clipPath4609)"
             transform="matrix(0.54295462,0.19128833,-0.19128833,0.54295462,229.67105,-816.17006)"
             id="g3053"
             style="opacity:0.677419;fill:#ffffff;stroke:none">
            <path
               inkscape:connector-curvature="0"
               id="path3055"
               d="m 159.66452,541.85339 c 4.78131,2.71274 12.13589,14.02871 1.71383,12.1829 -6.16978,-2.30601 0.36189,8.24023 -1.02121,11.56808 -2.1888,6.4999 3.23782,4.76335 7.33302,4.66655 4.55597,0.99615 4.06934,-0.65005 1.793,-4.01174 -6.67622,-7.58346 9.24933,-5.82933 5.92978,1.85077 0.9122,3.34807 -3.51934,6.25905 -6.6833,5.03923 -2.21916,0.74796 1.40846,6.45222 -3.03274,6.79486 -2.03143,1.47026 -6.89104,3.85843 -1.95993,4.71982 5.75309,1.46182 2.45763,8.32108 -2.5427,7.05644 -2.39708,2.52142 -1.67419,5.28719 -0.26289,8.10689 2.41302,1.96922 6.62442,3.34399 9.60433,1.82071 0.58835,-4.13235 1.72585,-15.88183 8.40864,-13.13445 2.85189,1.521 5.70377,3.04201 8.55565,4.56302 3.36847,-3.18284 -1.97638,-3.95766 -4.11534,-5.61846 2.87122,-4.45124 11.59256,8.81608 10.54391,-0.0958 -4.90054,-4.17795 -2.92261,-11.77168 3.82149,-9.64286 6.94604,1.3745 -8.13989,8.4768 0.20195,12.57255 3.66846,3.41672 14.00363,-2.01913 8.569,5.44145 1.2399,7.14467 -7.21416,4.69643 -11.87815,5.55743 5.45218,6.19224 -2.79256,5.52748 -4.28362,0.53363 -2.42434,-4.05381 -7.74144,-2.28497 -11.6712,-2.37127 -3.7253,0.89599 -5.94003,5.38701 -10.29518,4.54412 -6.19146,-1.9515 -4.65358,3.15201 -4.92395,7.05767 0.11965,3.76738 -1.82827,4.94792 -4.87516,5.92781 -3.47728,2.20013 -3.20679,6.49449 -4.30804,10.02233 0.6634,4.3826 0.19342,8.99456 0.97073,13.27385 2.63123,5.07979 7.02969,9.27824 12.54774,10.98917 6.95767,3.46254 13.7029,-4.21557 21.02953,-3.43155 5.64107,0.7776 4.84182,7.79338 6.71535,11.91382 0.71606,3.22293 1.93193,7.50681 -0.058,10.02256 -0.6978,7.12407 -2.47443,14.53134 -1.82851,21.63729 0.74282,1.78141 0.98101,8.64077 3.43566,5.28236 4.23334,-4.53972 9.18027,-8.57068 12.97323,-13.42438 5.09459,-9.90614 10.82532,-19.99288 14.47869,-30.48129 0.60009,-10.56053 1.5419,-21.18409 0.26946,-31.74851 -1.25279,-1.67103 -7.00176,1.76126 -7.38453,-2.63222 -2.21265,-3.27425 -3.90622,-6.76623 -4.57793,-10.68682 8.60454,-4.16357 5.96177,17.5248 9.69936,6.27581 -0.12057,-5.69778 -0.0669,-12.2748 -3.21496,-17.13467 -3.32116,-7.84512 -7.81361,-15.07538 -12.59454,-22.28629 -4.77861,-5.57871 -9.49984,-11.78566 -15.50785,-16.10787 -4.99473,-4.62405 -11.33729,-7.80097 -17.21196,-11.07568 -5.3542,-2.36523 -9.06073,-6.54704 -14.36266,-5.53726 z"
               style="fill:#ffffff;stroke:none"
               sodipodi:nodetypes="cccccccccccccccccccccccccccccccccccccccccccc" />
            <path
               inkscape:connector-curvature="0"
               id="path3057"
               d="m 123.92857,547.71932 c 6.53972,0.79504 16.12335,-1.0697 14.39941,8.8358 1.70802,7.79115 -8.88776,7.63878 -12.61369,7.59278 2.35221,5.88373 -7.16212,7.18039 -5.71429,1.7071 -0.62445,-3.79018 1.97835,-6.88766 3.21429,-10.27853 -0.7145,-3.6834 -8.43355,-3.98615 -1.54576,-6.50112 l 1.32254,-0.77567 z"
               style="fill:#ffffff;stroke:none" />
            <path
               inkscape:connector-curvature="0"
               id="path3059"
               d="m 156.78571,570.93361 c 2.30618,2.30076 10.40209,5.42181 4.91072,8.45982 -3.63741,0.0476 -1.98097,-5.35898 -5.18742,-6.7996 0.0922,-0.5534 0.18447,-1.10681 0.2767,-1.66022 z"
               style="fill:#ffffff;stroke:none" />
            <path
               inkscape:connector-curvature="0"
               id="path3061"
               d="m 152.5,574.86218 c 6.37627,0.58131 3.33047,10.79021 0.45201,3.01339 l -0.2288,-1.40625 z"
               style="fill:#ffffff;stroke:none" />
            <path
               inkscape:connector-curvature="0"
               id="path3063"
               d="m 105,553.79075 c 3.61327,-0.33359 7.06838,0.2459 10.35714,1.78572 0.0448,3.90525 1.96082,9.31048 -4.22433,9.29129 -7.27304,3.96154 1.06802,-12.50046 -6.25558,-6.56808 -4.980709,2.97735 -18.959589,0.13866 -15.634763,8.77163 4.850014,8.02564 10.095372,-0.35097 13.614673,-3.99484 8.28841,-1.16953 2.31319,10.21895 6.21378,14.26697 0.15285,6.27759 -9.114939,2.75084 -10.856634,1.44731 1.152191,2.99581 4.914524,9.87336 -2.237724,9.02344 -6.357681,-2.49275 -8.479142,4.6186 -13.878348,3.44238 1.146269,9.79462 -14.188563,7.712 -11.138392,17.66253 -2.617875,4.21784 -5.554704,-5.21014 -0.904018,-6.24442 -7.31134,-2.02708 -13.757416,0.0756 -15.429688,7.90179 -4.682437,6.6807 4.057635,5.71023 5.077783,3.83382 1.329256,4.8264 -3.242115,6.0999 1.434494,10.1952 -3.199983,4.80075 0.337784,15.05798 6.929491,11.39097 5.414577,-3.26402 7.508451,1.89086 11.826964,3.90768 2.930102,0.33609 5.234144,0.91687 6.967913,3.93565 1.556309,2.86825 4.191888,6.12431 7.858706,5.30811 3.199669,-0.3698 4.00221,4.07861 4.834141,6.49488 0.694952,2.85864 1.319252,6.14898 4.989552,5.74534 3.07701,0.34175 6.35176,-0.12331 7.38789,2.86658 2.88593,2.17958 6.37494,2.44705 9.85266,2.75034 2.12958,2.11076 4.83251,3.94983 4.26938,7.33662 -2.6285,3.07313 -3.82229,5.97585 -5.34918,9.63255 -3.33382,3.74267 -0.23951,12.2264 -8.20591,9.28083 -3.24236,0.24671 -4.60401,6.46541 -8.42633,8.6049 -2.92615,3.65851 -7.914858,9.3888 -8.716527,14.25224 -3.92148,-4.76048 -8.508539,-11.05965 -10.992324,-16.86552 -2.347987,-2.99297 -3.146227,-6.55657 -3.819684,-10.20074 -1.804868,-5.2134 -3.560336,-10.62979 -8.223706,-14.09445 -4.721863,-3.02823 -5.065065,-9.07009 -8.716518,-12.95202 -2.374669,-4.60867 -1.558359,-9.72168 0.716948,-14.0538 0.226047,-3.05163 0.452094,-6.10327 0.678141,-9.1549 -5.536049,-0.15485 -6.987918,-6.45671 -8.406466,-10.84667 -1.698064,-4.23402 -5.449772,-7.66873 -5.946675,-12.49246 -2.370243,-5.77635 1.797763,-11.30282 1.853141,-17.19658 1.382497,-4.80908 0.316558,-11.01861 1.564909,-15.73164 4.715051,-8.31428 11.155991,-16.76107 19.07148,-22.89139 4.360573,-3.9122 8.467326,-7.70502 13.989068,-9.93918 4.05342,-2.14593 8.017553,-4.82758 12.517402,-5.90208 2.995071,2.72018 -3.137778,9.06112 3.835571,9.72335 0.50719,0.0922 1.01438,0.18443 1.52157,0.27665 z"
               style="fill:#ffffff;stroke:none"
               sodipodi:nodetypes="ccccccccccccccccccccccccccccccccccccccccccc" />
          </g>
          <circle
             transform="matrix(0.56261897,0.19821628,-0.19821628,0.56261897,191.42015,-846.73564)"
             id="path3065"
             style="fill:url(#radialGradient3121);fill-opacity:1;stroke:none"
             cx="205.89285"
             cy="635.04077"
             r="88.75" />
        </g>
      </g>
      <g
         transform="rotate(-90)"
         style="font-style:normal;font-weight:normal;font-size:117.566px;line-height:125%;font-family:Sans;letter-spacing:0px;word-spacing:0px;display:inline;fill:#0090ff;fill-opacity:1;stroke:none"
         id="text3123">
        <path
           d="m -1253.045,749.05137 c -5.511,2.67891 -11.2323,4.68809 -17.1641,6.02754 -5.932,1.33945 -12.0552,2.00918 -18.3697,2.00918 -14.2748,0 -25.5836,-3.98009 -33.9264,-11.94027 -8.3429,-7.99844 -12.5144,-18.82887 -12.5144,-32.49132 0,-13.81546 4.248,-24.68415 12.744,-32.60613 8.4959,-7.92183 20.13,-11.88278 34.9023,-11.88287 5.7022,9e-5 11.1557,0.53587 16.3605,1.60734 5.2429,1.07165 10.1798,2.65986 14.8105,4.76463 v 17.7382 c -4.7838,-2.71712 -9.5484,-4.74543 -14.2939,-6.08495 -4.7072,-1.33938 -9.4336,-2.00911 -14.179,-2.00918 -8.8022,7e-5 -15.5951,2.46849 -20.3789,7.40526 -4.7455,4.89864 -7.1182,11.92119 -7.1182,21.0677 0,9.07005 2.2962,16.07347 6.8886,21.01028 4.5924,4.93687 11.1174,7.40528 19.5752,7.40527 2.2961,10e-6 4.4201,-0.13393 6.372,-0.40184 1.9899,-0.30614 3.7695,-0.76538 5.3386,-1.37772 v -16.6475 h -13.4902 v -14.81053 h 34.4431 v 41.21691"
           style="font-variant:normal;font-weight:bold;font-stretch:normal;font-family:Dingbats;-inkscape-font-specification:'Dingbats Bold';fill:#0090ff"
           id="path3130"
           inkscape:connector-curvature="0" />
        <path
           d="m -1233.642,669.71744 h 22.1009 v 85.7059 h -22.1009 v -85.7059"
           style="font-variant:normal;font-weight:bold;font-stretch:normal;font-family:Dingbats;-inkscape-font-specification:'Dingbats Bold';fill:#0090ff"
           id="path3132"
           inkscape:connector-curvature="0" />
        <path
           d="m -1130.1405,672.41548 v 18.14003 c -4.7073,-2.10479 -9.2997,-3.693 -13.7773,-4.76463 -4.4776,-1.07149 -8.7065,-1.60727 -12.6865,-1.60734 -5.2813,7e-5 -9.1849,0.7272 -11.7107,2.18139 -2.5258,1.45434 -3.7887,3.71227 -3.7887,6.77381 0,2.29627 0.8419,4.09496 2.5258,5.39609 1.7221,1.26297 4.822,2.35366 9.2996,3.27209 l 9.4145,1.89437 c 9.5292,1.91356 16.303,4.82208 20.3214,8.72559 4.0183,3.90359 6.0275,9.45275 6.0276,16.64749 -10e-5,9.45273 -2.813,16.49443 -8.4386,21.1251 -5.5875,4.59241 -14.1409,6.88862 -25.6601,6.88862 -5.4344,0 -10.8879,-0.51665 -16.3605,-1.54994 -5.4726,-1.03329 -10.9452,-2.56409 -16.4178,-4.59241 v -18.65668 c 5.4726,2.90855 10.7538,5.10908 15.8438,6.60159 5.1281,1.45428 10.065,2.18141 14.8105,2.1814 4.822,10e-6 8.5151,-0.80366 11.0792,-2.41102 2.564,-1.60732 3.8461,-3.90353 3.8461,-6.88862 0,-2.67888 -0.8802,-4.74546 -2.6406,-6.19975 -1.7222,-1.45424 -5.1856,-2.75542 -10.3903,-3.90355 l -8.5534,-1.89437 c -8.5725,-1.83693 -14.8488,-4.76459 -18.8289,-8.78299 -3.9418,-4.01832 -5.9127,-9.43353 -5.9127,-16.24566 0,-8.53417 2.7554,-15.09748 8.2663,-19.68997 5.5109,-4.59233 13.4328,-6.88853 23.7658,-6.88862 4.7071,9e-5 9.5483,0.36365 14.5235,1.0907 4.975,0.68894 10.1223,1.74137 15.442,3.15728"
           style="font-variant:normal;font-weight:bold;font-stretch:normal;font-family:Dingbats;-inkscape-font-specification:'Dingbats Bold';fill:#0090ff"
           id="path3134"
           inkscape:connector-curvature="0" />
      </g>
    </g>
  </g>
</svg>
