<?xml version="1.0" encoding="UTF-8" standalone="no"?>
<!-- Created with Inkscape (http://www.inkscape.org/) -->

<svg
   xmlns:dc="http://purl.org/dc/elements/1.1/"
   xmlns:cc="http://creativecommons.org/ns#"
   xmlns:rdf="http://www.w3.org/1999/02/22-rdf-syntax-ns#"
   xmlns:svg="http://www.w3.org/2000/svg"
   xmlns="http://www.w3.org/2000/svg"
   xmlns:sodipodi="http://sodipodi.sourceforge.net/DTD/sodipodi-0.dtd"
   xmlns:inkscape="http://www.inkscape.org/namespaces/inkscape"
   width="634.46643"
   height="447.93237"
   id="svg2"
   version="1.1"
   inkscape:version="0.48.4 r9939"
   sodipodi:docname="u-spt-1.svg">
  <sodipodi:namedview
     id="base"
     pagecolor="#444444"
     bordercolor="#666666"
     borderopacity="1.0"
     inkscape:pageopacity="1"
     inkscape:pageshadow="2"
     inkscape:zoom="0.98994949"
     inkscape:cx="234.55632"
     inkscape:cy="113.58354"
     inkscape:document-units="px"
     inkscape:current-layer="layer4"
     showgrid="false"
     inkscape:window-width="1916"
     inkscape:window-height="1036"
     inkscape:window-x="0"
     inkscape:window-y="392"
     inkscape:window-maximized="0"
     fit-margin-top="20"
     fit-margin-left="20"
     fit-margin-right="20"
     fit-margin-bottom="20"
     inkscape:snap-page="true"
     inkscape:snap-bbox="false"
     inkscape:snap-global="true" />
  <defs
     id="defs4">
    <marker
       style="overflow:visible"
       id="Arrow2Lstart"
       refX="0"
       refY="0"
       orient="auto"
       inkscape:stockid="Arrow2Lstart">
      <path
         inkscape:connector-curvature="0"
         transform="matrix(1.1,0,0,1.1,1.1,0)"
         d="M 8.7185878,4.0337352 -2.2072895,0.01601326 8.7185884,-4.0017078 c -1.7454984,2.3720609 -1.7354408,5.6174519 -6e-7,8.035443 z"
         style="fill-rule:evenodd;stroke-width:0.625;stroke-linejoin:round"
         id="path3904" />
    </marker>
    <marker
       style="overflow:visible"
       id="Arrow2Lend"
       refX="0"
       refY="0"
       orient="auto"
       inkscape:stockid="Arrow2Lend">
      <path
         transform="matrix(-1.1,0,0,-1.1,-1.1,0)"
         d="M 8.7185878,4.0337352 -2.2072895,0.01601326 8.7185884,-4.0017078 c -1.7454984,2.3720609 -1.7354408,5.6174519 -6e-7,8.035443 z"
         style="fill-rule:evenodd;stroke-width:0.625;stroke-linejoin:round"
         id="path3907"
         inkscape:connector-curvature="0" />
    </marker>
    <marker
       style="overflow:visible"
       id="Arrow2Lend-5"
       refX="0"
       refY="0"
       orient="auto"
       inkscape:stockid="Arrow2Lend">
      <path
         transform="matrix(-1.1,0,0,-1.1,-1.1,0)"
         d="M 8.7185878,4.0337352 -2.2072895,0.01601326 8.7185884,-4.0017078 c -1.7454984,2.3720609 -1.7354408,5.6174519 -6e-7,8.035443 z"
         style="fill-rule:evenodd;stroke-width:0.625;stroke-linejoin:round"
         id="path3907-7"
         inkscape:connector-curvature="0" />
    </marker>
    <marker
       style="overflow:visible"
       id="Arrow2Lend-5-9"
       refX="0"
       refY="0"
       orient="auto"
       inkscape:stockid="Arrow2Lend">
      <path
         transform="matrix(-1.1,0,0,-1.1,-1.1,0)"
         d="M 8.7185878,4.0337352 -2.2072895,0.01601326 8.7185884,-4.0017078 c -1.7454984,2.3720609 -1.7354408,5.6174519 -6e-7,8.035443 z"
         style="fill-rule:evenodd;stroke-width:0.625;stroke-linejoin:round"
         id="path3907-7-1"
         inkscape:connector-curvature="0" />
    </marker>
    <marker
       style="overflow:visible"
       id="Arrow2Lend-5-9-6"
       refX="0"
       refY="0"
       orient="auto"
       inkscape:stockid="Arrow2Lend">
      <path
         transform="matrix(-1.1,0,0,-1.1,-1.1,0)"
         d="M 8.7185878,4.0337352 -2.2072895,0.01601326 8.7185884,-4.0017078 c -1.7454984,2.3720609 -1.7354408,5.6174519 -6e-7,8.035443 z"
         style="fill-rule:evenodd;stroke-width:0.625;stroke-linejoin:round"
         id="path3907-7-1-2"
         inkscape:connector-curvature="0" />
    </marker>
    <marker
       style="overflow:visible"
       id="Arrow2Lend-5-9-6-4"
       refX="0"
       refY="0"
       orient="auto"
       inkscape:stockid="Arrow2Lend">
      <path
         transform="matrix(-1.1,0,0,-1.1,-1.1,0)"
         d="M 8.7185878,4.0337352 -2.2072895,0.01601326 8.7185884,-4.0017078 c -1.7454984,2.3720609 -1.7354408,5.6174519 -6e-7,8.035443 z"
         style="fill-rule:evenodd;stroke-width:0.625;stroke-linejoin:round"
         id="path3907-7-1-2-7"
         inkscape:connector-curvature="0" />
    </marker>
    <marker
       style="overflow:visible"
       id="Arrow2Lend-5-9-6-5"
       refX="0"
       refY="0"
       orient="auto"
       inkscape:stockid="Arrow2Lend">
      <path
         transform="matrix(-1.1,0,0,-1.1,-1.1,0)"
         d="M 8.7185878,4.0337352 -2.2072895,0.01601326 8.7185884,-4.0017078 c -1.7454984,2.3720609 -1.7354408,5.6174519 -6e-7,8.035443 z"
         style="fill-rule:evenodd;stroke-width:0.625;stroke-linejoin:round"
         id="path3907-7-1-2-6"
         inkscape:connector-curvature="0" />
    </marker>
    <marker
       style="overflow:visible"
       id="marker5262"
       refX="0"
       refY="0"
       orient="auto"
       inkscape:stockid="Arrow2Lend">
      <path
         transform="matrix(-1.1,0,0,-1.1,-1.1,0)"
         d="M 8.7185878,4.0337352 -2.2072895,0.01601326 8.7185884,-4.0017078 c -1.7454984,2.3720609 -1.7354408,5.6174519 -6e-7,8.035443 z"
         style="fill-rule:evenodd;stroke-width:0.625;stroke-linejoin:round"
         id="path5264"
         inkscape:connector-curvature="0" />
    </marker>
    <marker
       style="overflow:visible"
       id="marker5262-2"
       refX="0"
       refY="0"
       orient="auto"
       inkscape:stockid="Arrow2Lend">
      <path
         transform="matrix(-1.1,0,0,-1.1,-1.1,0)"
         d="M 8.7185878,4.0337352 -2.2072895,0.01601326 8.7185884,-4.0017078 c -1.7454984,2.3720609 -1.7354408,5.6174519 -6e-7,8.035443 z"
         style="fill-rule:evenodd;stroke-width:0.625;stroke-linejoin:round"
         id="path5264-6"
         inkscape:connector-curvature="0" />
    </marker>
    <marker
       style="overflow:visible"
       id="marker5262R"
       refX="0"
       refY="0"
       orient="auto"
       inkscape:stockid="marker5262R">
      <path
         transform="matrix(-1.1,0,0,-1.1,-1.1,0)"
         d="M 8.7185878,4.0337352 -2.2072895,0.01601326 8.7185884,-4.0017078 c -1.7454984,2.3720609 -1.7354408,5.6174519 -6e-7,8.035443 z"
         style="fill:#ffffff;fill-rule:evenodd;stroke:#ffffff;stroke-width:0.625;stroke-linejoin:round"
         id="path6868"
         inkscape:connector-curvature="0" />
    </marker>
    <marker
       style="overflow:visible"
       id="Arrow2Lend-5-9-6M"
       refX="0"
       refY="0"
       orient="auto"
       inkscape:stockid="Arrow2Lend-5-9-6M">
      <path
         transform="matrix(-1.1,0,0,-1.1,-1.1,0)"
         d="M 8.7185878,4.0337352 -2.2072895,0.01601326 8.7185884,-4.0017078 c -1.7454984,2.3720609 -1.7354408,5.6174519 -6e-7,8.035443 z"
         style="fill:#ffffff;fill-rule:evenodd;stroke:#ffffff;stroke-width:0.625;stroke-linejoin:round"
         id="path6871"
         inkscape:connector-curvature="0" />
    </marker>
    <marker
       style="overflow:visible"
       id="Arrow2Lend-5c"
       refX="0"
       refY="0"
       orient="auto"
       inkscape:stockid="Arrow2Lend-5c">
      <path
         transform="matrix(-1.1,0,0,-1.1,-1.1,0)"
         d="M 8.7185878,4.0337352 -2.2072895,0.01601326 8.7185884,-4.0017078 c -1.7454984,2.3720609 -1.7354408,5.6174519 -6e-7,8.035443 z"
         style="fill:#ffffff;fill-rule:evenodd;stroke:#ffffff;stroke-width:0.625;stroke-linejoin:round"
         id="path6874"
         inkscape:connector-curvature="0" />
    </marker>
    <marker
       style="overflow:visible"
       id="Arrow2Lend-5-9-62"
       refX="0"
       refY="0"
       orient="auto"
       inkscape:stockid="Arrow2Lend-5-9-62">
      <path
         transform="matrix(-1.1,0,0,-1.1,-1.1,0)"
         d="M 8.7185878,4.0337352 -2.2072895,0.01601326 8.7185884,-4.0017078 c -1.7454984,2.3720609 -1.7354408,5.6174519 -6e-7,8.035443 z"
         style="fill:#ffffff;fill-rule:evenodd;stroke:#ffffff;stroke-width:0.625;stroke-linejoin:round"
         id="path6877"
         inkscape:connector-curvature="0" />
    </marker>
    <marker
       style="overflow:visible"
       id="Arrow2Lendg"
       refX="0"
       refY="0"
       orient="auto"
       inkscape:stockid="Arrow2Lendg">
      <path
         transform="matrix(-1.1,0,0,-1.1,-1.1,0)"
         d="M 8.7185878,4.0337352 -2.2072895,0.01601326 8.7185884,-4.0017078 c -1.7454984,2.3720609 -1.7354408,5.6174519 -6e-7,8.035443 z"
         style="fill:#ffffff;fill-rule:evenodd;stroke:#ffffff;stroke-width:0.625;stroke-linejoin:round"
         id="path6880"
         inkscape:connector-curvature="0" />
    </marker>
    <marker
       style="overflow:visible"
       id="Arrow2Lstarth"
       refX="0"
       refY="0"
       orient="auto"
       inkscape:stockid="Arrow2Lstarth">
      <path
         inkscape:connector-curvature="0"
         transform="matrix(1.1,0,0,1.1,1.1,0)"
         d="M 8.7185878,4.0337352 -2.2072895,0.01601326 8.7185884,-4.0017078 c -1.7454984,2.3720609 -1.7354408,5.6174519 -6e-7,8.035443 z"
         style="fill:#ffffff;fill-rule:evenodd;stroke:#ffffff;stroke-width:0.625;stroke-linejoin:round"
         id="path6883" />
    </marker>
    <marker
       style="overflow:visible"
       id="Arrow2LendF"
       refX="0"
       refY="0"
       orient="auto"
       inkscape:stockid="Arrow2LendF">
      <path
         transform="matrix(-1.1,0,0,-1.1,-1.1,0)"
         d="M 8.7185878,4.0337352 -2.2072895,0.01601326 8.7185884,-4.0017078 c -1.7454984,2.3720609 -1.7354408,5.6174519 -6e-7,8.035443 z"
         style="fill:#ffffff;fill-rule:evenodd;stroke:#ffffff;stroke-width:0.625;stroke-linejoin:round"
         id="path6886"
         inkscape:connector-curvature="0" />
    </marker>
    <marker
       style="overflow:visible"
       id="marker52626"
       refX="0"
       refY="0"
       orient="auto"
       inkscape:stockid="marker52626">
      <path
         transform="matrix(-1.1,0,0,-1.1,-1.1,0)"
         d="M 8.7185878,4.0337352 -2.2072895,0.01601326 8.7185884,-4.0017078 c -1.7454984,2.3720609 -1.7354408,5.6174519 -6e-7,8.035443 z"
         style="fill:#ffffff;fill-rule:evenodd;stroke:#ffffff;stroke-width:0.625;stroke-linejoin:round"
         id="path6889"
         inkscape:connector-curvature="0" />
    </marker>
    <marker
       style="overflow:visible"
       id="Arrow2Lend-5-9-6x"
       refX="0"
       refY="0"
       orient="auto"
       inkscape:stockid="Arrow2Lend-5-9-6x">
      <path
         transform="matrix(-1.1,0,0,-1.1,-1.1,0)"
         d="M 8.7185878,4.0337352 -2.2072895,0.01601326 8.7185884,-4.0017078 c -1.7454984,2.3720609 -1.7354408,5.6174519 -6e-7,8.035443 z"
         style="fill:#ffffff;fill-rule:evenodd;stroke:#ffffff;stroke-width:0.625;stroke-linejoin:round"
         id="path6892"
         inkscape:connector-curvature="0" />
    </marker>
    <marker
       style="overflow:visible"
       id="Arrow2Lend-5u"
       refX="0"
       refY="0"
       orient="auto"
       inkscape:stockid="Arrow2Lend-5u">
      <path
         transform="matrix(-1.1,0,0,-1.1,-1.1,0)"
         d="M 8.7185878,4.0337352 -2.2072895,0.01601326 8.7185884,-4.0017078 c -1.7454984,2.3720609 -1.7354408,5.6174519 -6e-7,8.035443 z"
         style="fill:#ffffff;fill-rule:evenodd;stroke:#ffffff;stroke-width:0.625;stroke-linejoin:round"
         id="path6895"
         inkscape:connector-curvature="0" />
    </marker>
    <marker
       style="overflow:visible"
       id="Arrow2Lend-5-9-6c"
       refX="0"
       refY="0"
       orient="auto"
       inkscape:stockid="Arrow2Lend-5-9-6c">
      <path
         transform="matrix(-1.1,0,0,-1.1,-1.1,0)"
         d="M 8.7185878,4.0337352 -2.2072895,0.01601326 8.7185884,-4.0017078 c -1.7454984,2.3720609 -1.7354408,5.6174519 -6e-7,8.035443 z"
         style="fill:#ffffff;fill-rule:evenodd;stroke:#ffffff;stroke-width:0.625;stroke-linejoin:round"
         id="path6898"
         inkscape:connector-curvature="0" />
    </marker>
  </defs>
  <metadata
     id="metadata7">
    <rdf:RDF>
      <cc:Work
         rdf:about="">
        <dc:format>image/svg+xml</dc:format>
        <dc:type
           rdf:resource="http://purl.org/dc/dcmitype/StillImage" />
        <dc:title />
      </cc:Work>
    </rdf:RDF>
  </metadata>
  <g
     inkscape:groupmode="layer"
     id="layer4"
     inkscape:label="Background"
     style="display:inline"
     transform="translate(2.825958,8.7214665)">
    <rect
       style="fill:#333333;fill-opacity:1;stroke:#d33682;stroke-width:0.30000001;stroke-linecap:butt;stroke-miterlimit:4;stroke-opacity:1;stroke-dasharray:0.30000001, 3.60000014;stroke-dashoffset:0"
       id="rect9835"
       width="634.46643"
       height="447.93237"
       x="-2.825958"
       y="-8.7214661" />
  </g>
  <g
     style="display:inline"
     inkscape:label="Edge labels - text"
     id="layer7"
     inkscape:groupmode="layer"
     transform="translate(2.825958,115.09119)">
    <text
       sodipodi:linespacing="125%"
       id="text5903"
       y="84.735275"
       x="394.73853"
       style="font-size:24px;font-style:normal;font-variant:normal;font-weight:normal;font-stretch:normal;line-height:125%;letter-spacing:0px;word-spacing:0px;fill:#ffffff;fill-opacity:1;stroke:none;font-family:Arial;-inkscape-font-specification:Arial"
       xml:space="preserve"><tspan
         y="84.735275"
         x="394.73853"
         id="tspan5905"
         sodipodi:role="line">6</tspan></text>
    <text
       sodipodi:linespacing="125%"
       id="text5911"
       y="107.08029"
       x="496.84155"
       style="font-size:24px;font-style:normal;font-variant:normal;font-weight:normal;font-stretch:normal;line-height:125%;letter-spacing:0px;word-spacing:0px;fill:#ffffff;fill-opacity:1;stroke:none;font-family:Arial;-inkscape-font-specification:Arial"
       xml:space="preserve"><tspan
         y="107.08029"
         x="496.84155"
         id="tspan5913"
         sodipodi:role="line">8</tspan></text>
    <text
       sodipodi:linespacing="125%"
       id="text5915"
       y="107.19795"
       x="592.47308"
       style="font-size:24px;font-style:normal;font-variant:normal;font-weight:normal;font-stretch:normal;line-height:125%;letter-spacing:0px;word-spacing:0px;fill:#ffffff;fill-opacity:1;stroke:none;font-family:Arial;-inkscape-font-specification:Arial"
       xml:space="preserve"><tspan
         y="107.19795"
         x="592.47308"
         id="tspan5917"
         sodipodi:role="line">9</tspan></text>
    <text
       sodipodi:linespacing="125%"
       id="text5887"
       y="-56.822224"
       x="403.58939"
       style="font-size:24px;font-style:normal;font-variant:normal;font-weight:normal;font-stretch:normal;line-height:125%;letter-spacing:0px;word-spacing:0px;fill:#ffffff;fill-opacity:1;stroke:none;font-family:Arial;-inkscape-font-specification:Arial"
       xml:space="preserve"><tspan
         y="-56.822224"
         x="403.58939"
         id="tspan5889"
         sodipodi:role="line">2</tspan></text>
    <text
       sodipodi:linespacing="125%"
       id="text5883"
       y="16.9923"
       x="139.64128"
       style="font-size:24px;font-style:normal;font-variant:normal;font-weight:normal;font-stretch:normal;line-height:125%;letter-spacing:0px;word-spacing:0px;fill:#ffffff;fill-opacity:1;stroke:none;font-family:Arial;-inkscape-font-specification:Arial"
       xml:space="preserve"><tspan
         y="16.9923"
         x="139.64128"
         id="tspan5885"
         sodipodi:role="line">1</tspan></text>
    <text
       sodipodi:linespacing="125%"
       id="text5899"
       y="163.51228"
       x="138.65146"
       style="font-size:24px;font-style:normal;font-variant:normal;font-weight:normal;font-stretch:normal;line-height:125%;letter-spacing:0px;word-spacing:0px;fill:#ffffff;fill-opacity:1;stroke:none;font-family:Arial;-inkscape-font-specification:Arial"
       xml:space="preserve"><tspan
         y="163.51228"
         x="138.65146"
         id="tspan5901"
         sodipodi:role="line">5</tspan></text>
    <g
       transform="translate(-177.89277,-460.47759)"
       id="g5997"
       style="fill:#ffffff;fill-opacity:1">
      <text
         xml:space="preserve"
         style="font-size:22px;font-style:normal;font-variant:normal;font-weight:normal;font-stretch:normal;line-height:125%;letter-spacing:0px;word-spacing:0px;fill:#ffffff;fill-opacity:1;stroke:none;font-family:Arial;-inkscape-font-specification:Arial"
         x="296.82367"
         y="709.92737"
         id="text5919"
         sodipodi:linespacing="125%"><tspan
           sodipodi:role="line"
           id="tspan5921"
           x="296.82367"
           y="709.92737">1</tspan></text>
      <text
         xml:space="preserve"
         style="font-size:22px;font-style:normal;font-variant:normal;font-weight:normal;font-stretch:normal;line-height:125%;letter-spacing:0px;word-spacing:0px;fill:#ffffff;fill-opacity:1;stroke:none;font-family:Arial;-inkscape-font-specification:Arial"
         x="305.05811"
         y="709.65881"
         id="text5993"
         sodipodi:linespacing="125%"><tspan
           sodipodi:role="line"
           id="tspan5995"
           x="305.05811"
           y="709.65881">0</tspan></text>
    </g>
    <text
       xml:space="preserve"
       style="font-size:24px;font-style:normal;font-variant:normal;font-weight:normal;font-stretch:normal;line-height:125%;letter-spacing:0px;word-spacing:0px;fill:#ffffff;fill-opacity:1;stroke:none;font-family:Arial;-inkscape-font-specification:Arial"
       x="403.58939"
       y="371.74921"
       id="text9608"
       sodipodi:linespacing="125%"><tspan
         sodipodi:role="line"
         id="tspan9610"
         x="403.58939"
         y="371.74921" /></text>
  </g>
  <g
     inkscape:groupmode="layer"
     id="layer10"
     inkscape:label="Edge labels - circles"
     style="display:inline"
     transform="translate(2.825958,115.09119)">
    <path
       transform="matrix(0.37431957,0,0,0.37431957,376.1678,-61.800849)"
       d="m 100.0051,368.82281 c 0,18.13149 -14.698468,32.82996 -32.829952,32.82996 -18.131484,0 -32.829956,-14.69847 -32.829956,-32.82996 0,-18.13148 14.698472,-32.82995 32.829956,-32.82995 18.131484,0 32.829952,14.69847 32.829952,32.82995 z"
       sodipodi:ry="32.829956"
       sodipodi:rx="32.829956"
       sodipodi:cy="368.82281"
       sodipodi:cx="67.175148"
       id="path2985-0-3"
       style="fill:none;stroke:#ffffff;stroke-width:1.25;stroke-linecap:butt;stroke-miterlimit:4;stroke-opacity:1;stroke-dasharray:none;display:inline"
       sodipodi:type="arc" />
    <path
       transform="matrix(0.37431957,0,0,0.37431957,478.32941,-39.327989)"
       d="m 100.0051,368.82281 c 0,18.13149 -14.698468,32.82996 -32.829952,32.82996 -18.131484,0 -32.829956,-14.69847 -32.829956,-32.82996 0,-18.13148 14.698472,-32.82995 32.829956,-32.82995 18.131484,0 32.829952,14.69847 32.829952,32.82995 z"
       sodipodi:ry="32.829956"
       sodipodi:rx="32.829956"
       sodipodi:cy="368.82281"
       sodipodi:cx="67.175148"
       id="path2985-0-8"
       style="fill:none;stroke:#ffffff;stroke-width:1.25;stroke-linecap:butt;stroke-miterlimit:4;stroke-opacity:1;stroke-dasharray:none;display:inline"
       sodipodi:type="arc" />
    <path
       transform="matrix(0.37431957,0,0,0.37431957,573.97266,-39.338139)"
       d="m 100.0051,368.82281 c 0,18.13149 -14.698468,32.82996 -32.829952,32.82996 -18.131484,0 -32.829956,-14.69847 -32.829956,-32.82996 0,-18.13148 14.698472,-32.82995 32.829956,-32.82995 18.131484,0 32.829952,14.69847 32.829952,32.82995 z"
       sodipodi:ry="32.829956"
       sodipodi:rx="32.829956"
       sodipodi:cy="368.82281"
       sodipodi:cx="67.175148"
       id="path2985-0-9"
       style="fill:none;stroke:#ffffff;stroke-width:1.25;stroke-linecap:butt;stroke-miterlimit:4;stroke-opacity:1;stroke-dasharray:none;display:inline"
       sodipodi:type="arc" />
    <path
       transform="matrix(0.37431957,0,0,0.37431957,384.83696,-203.50484)"
       d="m 100.0051,368.82281 c 0,18.13149 -14.698468,32.82996 -32.829952,32.82996 -18.131484,0 -32.829956,-14.69847 -32.829956,-32.82996 0,-18.13148 14.698472,-32.82995 32.829956,-32.82995 18.131484,0 32.829952,14.69847 32.829952,32.82995 z"
       sodipodi:ry="32.829956"
       sodipodi:rx="32.829956"
       sodipodi:cy="368.82281"
       sodipodi:cx="67.175148"
       id="path2985-0"
       style="fill:none;stroke:#ffffff;stroke-width:1.25;stroke-linecap:butt;stroke-miterlimit:4;stroke-opacity:1;stroke-dasharray:none;display:inline"
       sodipodi:type="arc" />
    <path
       transform="matrix(0.37431957,0,0,0.37431957,120.27367,-129.69029)"
       d="m 100.0051,368.82281 c 0,18.13149 -14.698468,32.82996 -32.829952,32.82996 -18.131484,0 -32.829956,-14.69847 -32.829956,-32.82996 0,-18.13148 14.698472,-32.82995 32.829956,-32.82995 18.131484,0 32.829952,14.69847 32.829952,32.82995 z"
       sodipodi:ry="32.829956"
       sodipodi:rx="32.829956"
       sodipodi:cy="368.82281"
       sodipodi:cx="67.175148"
       id="path2985-0-57"
       style="fill:none;stroke:#ffffff;stroke-width:1.25;stroke-linecap:butt;stroke-miterlimit:4;stroke-opacity:1;stroke-dasharray:none;display:inline"
       sodipodi:type="arc" />
    <path
       transform="matrix(0.37431957,0,0,0.37431957,120.19789,17.128471)"
       d="m 100.0051,368.82281 c 0,18.13149 -14.698468,32.82996 -32.829952,32.82996 -18.131484,0 -32.829956,-14.69847 -32.829956,-32.82996 0,-18.13148 14.698472,-32.82995 32.829956,-32.82995 18.131484,0 32.829952,14.69847 32.829952,32.82995 z"
       sodipodi:ry="32.829956"
       sodipodi:rx="32.829956"
       sodipodi:cy="368.82281"
       sodipodi:cx="67.175148"
       id="path2985-0-2"
       style="fill:none;stroke:#ffffff;stroke-width:1.25;stroke-linecap:butt;stroke-miterlimit:4;stroke-opacity:1;stroke-dasharray:none;display:inline"
       sodipodi:type="arc" />
    <path
       transform="matrix(0.37431957,0,0,0.37431957,104.6922,103.35165)"
       d="m 100.0051,368.82281 c 0,18.13149 -14.698468,32.82996 -32.829952,32.82996 -18.131484,0 -32.829956,-14.69847 -32.829956,-32.82996 0,-18.13148 14.698472,-32.82995 32.829956,-32.82995 18.131484,0 32.829952,14.69847 32.829952,32.82995 z"
       sodipodi:ry="32.829956"
       sodipodi:rx="32.829956"
       sodipodi:cy="368.82281"
       sodipodi:cx="67.175148"
       id="path2985-0-2-2"
       style="fill:none;stroke:#ffffff;stroke-width:1.25;stroke-linecap:butt;stroke-miterlimit:4;stroke-opacity:1;stroke-dasharray:none;display:inline"
       sodipodi:type="arc" />
  </g>
  <g
     style="display:inline"
     inkscape:label="Nodes"
     id="layer8"
     inkscape:groupmode="layer"
     transform="translate(2.825958,115.09119)" />
  <g
     inkscape:groupmode="layer"
     id="layer9"
     inkscape:label="Node labels"
     style="display:inline"
     transform="translate(2.825958,115.09119)">
    <g
       id="g8998">
      <path
         transform="matrix(1,0,0,1.0000013,183.45385,-412.55182)"
         sodipodi:type="arc"
         style="fill:none;stroke:#ffffff;stroke-width:1.24999917;stroke-linecap:butt;stroke-miterlimit:4;stroke-opacity:1;stroke-dasharray:none;display:inline"
         id="path2985-7"
         sodipodi:cx="67.175148"
         sodipodi:cy="368.82281"
         sodipodi:rx="32.829956"
         sodipodi:ry="32.829956"
         d="m 100.0051,368.82281 c 0,18.13149 -14.698468,32.82996 -32.829952,32.82996 -18.131484,0 -32.829956,-14.69847 -32.829956,-32.82996 0,-18.13148 14.698472,-32.82995 32.829956,-32.82995 18.131484,0 32.829952,14.69847 32.829952,32.82995 z" />
      <text
         xml:space="preserve"
         style="font-size:40.0000267px;font-style:normal;font-variant:normal;font-weight:normal;font-stretch:normal;line-height:125%;letter-spacing:0px;word-spacing:0px;fill:#ffffff;fill-opacity:1;stroke:none;display:inline;font-family:Arial;-inkscape-font-specification:Arial"
         x="239.20058"
         y="-30.014284"
         id="text3759"
         sodipodi:linespacing="125%"><tspan
           sodipodi:role="line"
           id="tspan3761"
           x="239.20058"
           y="-30.014284">2</tspan></text>
    </g>
    <g
       id="g8986">
      <path
         transform="translate(183.45385,-112.55129)"
         sodipodi:type="arc"
         style="fill:none;stroke:#ffffff;stroke-width:1.25;stroke-linecap:butt;stroke-miterlimit:4;stroke-opacity:1;stroke-dasharray:none;display:inline"
         id="path2985-3"
         sodipodi:cx="67.175148"
         sodipodi:cy="368.82281"
         sodipodi:rx="32.829956"
         sodipodi:ry="32.829956"
         d="m 100.0051,368.82281 c 0,18.13149 -14.698468,32.82996 -32.829952,32.82996 -18.131484,0 -32.829956,-14.69847 -32.829956,-32.82996 0,-18.13148 14.698472,-32.82995 32.829956,-32.82995 18.131484,0 32.829952,14.69847 32.829952,32.82995 z" />
      <text
         xml:space="preserve"
         style="font-size:40px;font-style:normal;font-variant:normal;font-weight:normal;font-stretch:normal;line-height:125%;letter-spacing:0px;word-spacing:0px;fill:#ffffff;fill-opacity:1;stroke:none;display:inline;font-family:Arial;-inkscape-font-specification:Arial"
         x="239.91472"
         y="268.41437"
         id="text3763"
         sodipodi:linespacing="125%"><tspan
           sodipodi:role="line"
           id="tspan3765"
           x="239.91472"
           y="268.41437">3</tspan></text>
    </g>
    <g
       id="g8992">
      <path
         transform="translate(483.45385,-412.55129)"
         sodipodi:type="arc"
         style="fill:none;stroke:#ffffff;stroke-width:1.25;stroke-linecap:butt;stroke-miterlimit:4;stroke-opacity:1;stroke-dasharray:none;display:inline"
         id="path2985-6"
         sodipodi:cx="67.175148"
         sodipodi:cy="368.82281"
         sodipodi:rx="32.829956"
         sodipodi:ry="32.829956"
         d="m 100.0051,368.82281 c 0,18.13149 -14.698468,32.82996 -32.829952,32.82996 -18.131484,0 -32.829956,-14.69847 -32.829956,-32.82996 0,-18.13148 14.698472,-32.82995 32.829956,-32.82995 18.131484,0 32.829952,14.69847 32.829952,32.82995 z" />
      <text
         xml:space="preserve"
         style="font-size:40px;font-style:normal;font-variant:normal;font-weight:normal;font-stretch:normal;line-height:125%;letter-spacing:0px;word-spacing:0px;fill:#ffffff;fill-opacity:1;stroke:none;display:inline;font-family:Arial;-inkscape-font-specification:Arial"
         x="540.48615"
         y="-30.157091"
         id="text3767"
         sodipodi:linespacing="125%"><tspan
           sodipodi:role="line"
           id="tspan3769"
           x="540.48615"
           y="-30.157091">4</tspan></text>
    </g>
    <g
       id="g9663"
       transform="translate(0,11.428571)">
      <path
         transform="translate(483.45385,-123.97986)"
         sodipodi:type="arc"
         style="fill:none;stroke:#ffffff;stroke-width:1.25;stroke-linecap:butt;stroke-miterlimit:4;stroke-opacity:1;stroke-dasharray:none;display:inline"
         id="path2985-75"
         sodipodi:cx="67.175148"
         sodipodi:cy="368.82281"
         sodipodi:rx="32.829956"
         sodipodi:ry="32.829956"
         d="m 100.0051,368.82281 c 0,18.13149 -14.698468,32.82996 -32.829952,32.82996 -18.131484,0 -32.829956,-14.69847 -32.829956,-32.82996 0,-18.13148 14.698472,-32.82995 32.829956,-32.82995 18.131484,0 32.829952,14.69847 32.829952,32.82995 z" />
      <text
         xml:space="preserve"
         style="font-size:40px;font-style:normal;font-variant:normal;font-weight:normal;font-stretch:normal;line-height:125%;letter-spacing:0px;word-spacing:0px;fill:#ffffff;fill-opacity:1;stroke:none;display:inline;font-family:Arial;-inkscape-font-specification:Arial"
         x="538.62897"
         y="258.27151"
         id="text3771"
         sodipodi:linespacing="125%"><tspan
           sodipodi:role="line"
           id="tspan3773"
           x="538.62897"
           y="258.27151">5</tspan></text>
    </g>
    <path
       transform="translate(-16.54615,-262.55129)"
       d="m 100.0051,368.82281 c 0,18.13149 -14.698468,32.82996 -32.829952,32.82996 -18.131484,0 -32.829956,-14.69847 -32.829956,-32.82996 0,-18.13148 14.698472,-32.82995 32.829956,-32.82995 18.131484,0 32.829952,14.69847 32.829952,32.82995 z"
       sodipodi:ry="32.829956"
       sodipodi:rx="32.829956"
       sodipodi:cy="368.82281"
       sodipodi:cx="67.175148"
       id="path2985"
       style="fill:none;stroke:#ffffff;stroke-width:1.25;stroke-linecap:butt;stroke-miterlimit:4;stroke-opacity:1;stroke-dasharray:none;display:inline"
       sodipodi:type="arc" />
    <text
       sodipodi:linespacing="125%"
       id="text3755"
       y="120.8289"
       x="39.168137"
       style="font-size:40px;font-style:normal;font-variant:normal;font-weight:normal;font-stretch:normal;line-height:125%;letter-spacing:0px;word-spacing:0px;fill:#87ceeb;fill-opacity:1;stroke:none;display:inline;font-family:Arial;-inkscape-font-specification:Arial"
       xml:space="preserve"><tspan
         y="120.8289"
         x="39.168137"
         id="tspan3757"
         sodipodi:role="line">1</tspan></text>
  </g>
  <g
     style="display:inline"
     transform="translate(-180,-238.97308)"
     id="layer1"
     inkscape:groupmode="layer"
     inkscape:label="Edges">
    <path
       sodipodi:nodetypes="cc"
       inkscape:connector-curvature="0"
       id="path3880"
       d="M 259.82774,440.52367 404.67796,328.27807"
       style="fill:none;stroke:#ffffff;stroke-width:1px;stroke-linecap:butt;stroke-linejoin:miter;stroke-opacity:1;marker-end:none" />
    <path
       sodipodi:nodetypes="cc"
       inkscape:connector-curvature="0"
       id="path3880-1"
       d="m 259.828,479.51263 144.85022,112.2456"
       style="fill:none;stroke:#ffffff;stroke-width:1px;stroke-linecap:butt;stroke-linejoin:miter;stroke-opacity:1;marker-end:none" />
    <path
       inkscape:connector-curvature="0"
       id="path4600"
       d="m 700.4831,309.83575 -232.8346,0"
       style="fill:none;stroke:#ffffff;stroke-width:1.04392219px;stroke-linecap:butt;stroke-linejoin:miter;stroke-opacity:1;marker-end:none" />
    <path
       sodipodi:nodetypes="cc"
       inkscape:connector-curvature="0"
       id="path5036-8"
       d="m 723.84588,341.74611 c -25.78949,78.92857 -19.75498,157.85714 0,236.78571"
       style="fill:none;stroke:#ffffff;stroke-width:1px;stroke-linecap:butt;stroke-linejoin:miter;stroke-opacity:1;marker-end:none" />
    <path
       sodipodi:nodetypes="cc"
       inkscape:connector-curvature="0"
       id="path5036-3-2"
       d="m 745.51634,579.11095 c 25.78949,-78.92857 19.75498,-157.85714 0,-236.78571"
       style="fill:none;stroke:#ffffff;stroke-width:1px;stroke-linecap:butt;stroke-linejoin:miter;stroke-opacity:1;marker-end:none" />
    <path
       sodipodi:nodetypes="cc"
       inkscape:connector-curvature="0"
       id="path5291"
       d="M 459.11433,589.22721 706.79111,331.19637"
       style="fill:none;stroke:#ffffff;stroke-width:1px;stroke-linecap:butt;stroke-linejoin:miter;stroke-opacity:1;marker-end:none" />
    <path
       sodipodi:nodetypes="cc"
       inkscape:connector-curvature="0"
       id="path5687"
       d="M 706.96429,630.21933 C 475.04068,680.08223 290.02702,711.45954 233.39286,493.07647"
       style="fill:none;stroke:#ffffff;stroke-width:1px;stroke-linecap:butt;stroke-linejoin:miter;stroke-opacity:1;marker-end:none" />
    <text
       sodipodi:linespacing="125%"
       id="text3296"
       y="571.91058"
       x="421.00085"
       style="font-size:18px;font-style:normal;font-variant:normal;font-weight:normal;font-stretch:normal;line-height:125%;letter-spacing:0px;word-spacing:0px;fill:#ffffff;fill-opacity:1;stroke:none;display:inline;font-family:Arial;-inkscape-font-specification:Arial"
       xml:space="preserve"><tspan
         id="tspan3298"
         y="571.91058"
         x="421.00085"
         sodipodi:role="line">1.0</tspan></text>
    <text
       xml:space="preserve"
       style="font-size:18px;font-style:normal;font-variant:normal;font-weight:normal;font-stretch:normal;line-height:125%;letter-spacing:0px;word-spacing:0px;fill:#ffffff;fill-opacity:1;stroke:none;display:inline;font-family:Arial;-inkscape-font-specification:Arial"
       x="420.39441"
       y="271.91058"
       id="text9003"
       sodipodi:linespacing="125%"><tspan
         sodipodi:role="line"
         x="420.39441"
         y="271.91058"
         id="tspan9005">1.0</tspan></text>
    <text
       sodipodi:linespacing="125%"
       id="text9007"
       y="422.05344"
       x="221.00085"
       style="font-size:18px;font-style:normal;font-variant:normal;font-weight:normal;font-stretch:normal;line-height:125%;letter-spacing:0px;word-spacing:0px;fill:#87ceeb;fill-opacity:1;stroke:none;display:inline;font-family:Arial;-inkscape-font-specification:Arial"
       xml:space="preserve"><tspan
         id="tspan9009"
         y="422.05344"
         x="221.00085"
         sodipodi:role="line">0.0</tspan></text>
    <text
       xml:space="preserve"
       style="font-size:18px;font-style:normal;font-variant:normal;font-weight:normal;font-stretch:normal;line-height:125%;letter-spacing:0px;word-spacing:0px;fill:#ffffff;fill-opacity:1;stroke:none;display:inline;font-family:Arial;-inkscape-font-specification:Arial"
       x="721.11072"
       y="271.91058"
       id="text9011"
       sodipodi:linespacing="125%"><tspan
         sodipodi:role="line"
         x="721.11072"
         y="271.91058"
         id="tspan9013">2.0</tspan></text>
    <text
       sodipodi:linespacing="125%"
       id="text9015"
       y="571.91058"
       x="720.39441"
       style="font-size:18px;font-style:normal;font-variant:normal;font-weight:normal;font-stretch:normal;line-height:125%;letter-spacing:0px;word-spacing:0px;fill:#ffffff;fill-opacity:1;stroke:none;display:inline;font-family:Arial;-inkscape-font-specification:Arial"
       xml:space="preserve"><tspan
         id="tspan9017"
         y="571.91058"
         x="720.39441"
         sodipodi:role="line">1.0</tspan></text>
  </g>
</svg>
